/* XPM */
static char *_f6f78f1c8d34322ddc09757704cdb49UMmOVucSnjihWa95[] = {
/* columns rows colors chars-per-pixel */
"64 64 96 2 ",
"   c None",
".  c #0D0D0D",
"X  c #0F1010",
"o  c #141516",
"O  c #161718",
"+  c #17181A",
"@  c #1A1B1D",
"#  c #1D1E21",
"$  c #201D21",
"%  c #1F2124",
"&  c #212225",
"*  c #24262A",
"=  c #29272C",
"-  c #26292D",
";  c #292B2F",
":  c #272B31",
">  c #2A2D32",
",  c #332F36",
"<  c #2D3136",
"1  c #2E3239",
"2  c #333235",
"3  c #32353B",
"4  c #3A343C",
"5  c #34383F",
"6  c #393B3E",
"7  c #474335",
"8  c #45443D",
"9  c #3E3740",
"0  c #363A41",
"q  c #3A3D45",
"w  c #443A44",
"e  c #473F49",
"r  c #3D4044",
"t  c #3D424B",
"y  c #434343",
"u  c #484846",
"i  c #42454D",
"p  c #4B404C",
"a  c #45494F",
"s  c #4B4C4B",
"d  c #59564C",
"f  c #5D594B",
"g  c #424751",
"h  c #4D4551",
"j  c #444A55",
"k  c #4F4956",
"l  c #474E58",
"z  c #484F5A",
"x  c #514653",
"c  c #504955",
"v  c #5B4857",
"b  c #5D4A5A",
"n  c #4E5154",
"m  c #4B535E",
"M  c #535454",
"N  c #52555B",
"B  c #575A5F",
"V  c #625C4A",
"C  c #6C654C",
"Z  c #706648",
"A  c #706B58",
"S  c #7A725B",
"D  c #4D5561",
"F  c #525A67",
"G  c #5A5D62",
"H  c #535B69",
"J  c #675264",
"K  c #6B5567",
"L  c #6E576A",
"P  c #715A6E",
"I  c #765D71",
"U  c #795E74",
"Y  c #66696E",
"T  c #6A6B6B",
"R  c #706F6D",
"E  c #7A7462",
"W  c #70706D",
"Q  c #6D6F74",
"!  c #7C6177",
"~  c #7E6178",
"^  c #72757A",
"/  c #83795D",
"(  c #8E8260",
")  c #958B6E",
"_  c #97917E",
"`  c #A89B78",
"'  c #7F8183",
"]  c #828383",
"[  c #948F83",
"{  c #939086",
"}  c #9A9480",
"|  c gray61",
" . c #A09E98",
".. c #B4AB93",
"X. c #A2A2A0",
"o. c #B4AFA2",
/* pixels */
"                                                                                                                                ",
"                                                                                                                                ",
"                                                                                                                                ",
"                                                                                                                                ",
"                                                                                                                                ",
"                                                                                                                                ",
"                                                                                                                                ",
"                                                                                                                                ",
"                                                                                                                                ",
"                                                                                                                                ",
"                                                                                                                                ",
"                                                                                                                                ",
"                                                                                                                                ",
"                                                                                                                                ",
"                                                                                                                                ",
"                                                                                                                                ",
"                                                                                                                                ",
"                                                                            @ @ # % # #                                         ",
"                                                                          @ % * * * * * * +                                     ",
"                                                                        @ * : < < < 1 1 > * %                                   ",
"                                                                      o @ - > 1 3 5 5 5 0 0 : #                                 ",
"                                      @ @                       + @ +   O # & * * * = 1 t t q < *                               ",
"                                    O $ * #                   # & & #       o + O @ % : q z t 1 *                               ",
"                                    + : 4 2 =               # 2 4 > =                 % 1 q q > *                               ",
"                                    @ 9 x e 4 = O         o = p x 9 ,                 + * 1 < - %                               ",
"                                    $ v U J e , * * * * % # 2 K P b w                 + * < > - #                               ",
"                                    $ b U P c 9 1 5 5 2 : - 9 P ~ b w                 # - < : * #                               ",
"                                    @ 4 x h i g j m m g q 5 q k c w > @             % : > < : % @                               ",
"                                    + * 1 0 t l D H H m t t t q 0 > % @         # # : < < : * @                                 ",
"                                    + * 3 r a g g g t t r t i t 0 > * % & * * * : > > < : % #                                   ",
"                                    @ * 5 n G N i 0 5 2 q n G N a < - - : 3 3 , < < < : * #                                     ",
"                                    O & 0 Y ] W d y 3 2 8 W ' Q N 3 = < q j j i q < : % #                                       ",
"                                    + % r ^ | _ S d 8 7 V }  .' G 3 < 5 g D D l q < * %                                         ",
"                                    o % 5 ^ X...` S V Z ( ..o.] B 3 < t l l l t 5 > %                                           ",
"                                      @ < G ] _ ) A f C / } { T a < < t t t t r 1 > %                                           ",
"                                        # 1 t s s y y r u n j r < = ; 5 t t r r 5 > %                                           ",
"                                        o % % * > > > > 1 : : % % : < 1 q 0 q q 5 - %                                           ",
"                                        o @ % % % % % % % % % : : 1 0 0 q q q q 5 : %                                           ",
"                                        O @ % % % % ; ; : % : : 0 0 0 < < 0 0 q 5 - %                                           ",
"                                        + % * > < < 5 5 0 0 0 0 0 0 < : : < 0 q 5 > %                                           ",
"                                        + * < < 1 0 0 r 0 t t r 0 1 : % * ; 3 0 5 ; %                                           ",
"                                        + - < 5 0 0 3 0 0 0 0 r 1 : % % % ; 1 0 5 ; %                                           ",
"                                        + - 1 5 3 < ; < < 0 0 3 > % @ % % = < 3 1 ; *                                           ",
"                                        + - 1 < < % # % % 1 1 : * @ @ % % * - < < - &                                           ",
"                                        + - 1 < - % o O # < < - # + @ & * & * < < ; %                                           ",
"                                        + : 1 > * %   X @ ; < - & + + % & # * < < ; *                                           ",
"                                        + - 1 > * @   . + ; < - & + o @ @ @ = < > * %                                           ",
"                                        + - 2 > = #   . + ; < = & o     O @ * ; : * @                                           ",
"                                        + - 2 > - #   . + ; < - &         + # & % #                                             ",
"                                        @ - < > * #   . @ > < = &           o + +                                               ",
"                                        + * < > * @   . @ ; > - %                                                               ",
"                                        + * : * #     X @ = > * #                                                               ",
"                                        o @ & #         + # & @                                                                 ",
"                                          O @           o + +                                                                   ",
"                                                                                                                                ",
"                                                                                                                                ",
"                                                                                                                                ",
"                                                                                                                                ",
"                                                                                                                                ",
"                                                                                                                                ",
"                                                                                                                                ",
"                                                                                                                                ",
"                                                                                                                                ",
"                                                                                                                                "
};
