/* XPM */
static char *c29d8758a7974eab81e6319fef43efb27q3RbJkrBLvwfR8N[] = {
/* columns rows colors chars-per-pixel */
"33 33 28 1 ",
"  c None",
". c #161718",
"X c #16181D",
"o c #191919",
"O c #1C1D1E",
"+ c #1C1D1F",
"@ c #1D1E20",
"# c #1F2124",
"$ c #212224",
"% c #23262B",
"& c #242629",
"* c #24272D",
"= c #262A31",
"- c #2B2F36",
"; c #31353B",
": c #32363D",
"> c #343941",
", c #393E46",
"< c #444A54",
"1 c #625E4E",
"2 c #535B68",
"3 c #685A6C",
"4 c #5A6372",
"5 c #696D73",
"6 c #AB9350",
"7 c #A0A1A3",
"8 c #CA94BA",
"9 c #EEEEEE",
/* pixels */
"                                 ",
"                                 ",
"                                 ",
"                                 ",
"                                 ",
"                                 ",
"                                 ",
"                                 ",
"                                 ",
"        ..     ..                ",
"        @:.   .:@         ...    ",
"        @8@...@8@     ....:::.   ",
"        @3:22::3@    .::::&&&    ",
"        @,,<<,,,@....:-&&&       ",
"        @,7X,X7,@:2::-#          ",
"        @,96,69,@4<,&#           ",
"         $51,15$*<,,@            ",
"         O$$$$$%>,,,@            ",
"         @%%;;:>,$,,@            ",
"         @>>,,,,$o,,@            ",
"         @,-$-,$o%&,@            ",
"         @,# O,oo=@,@            ",
"         @,@ o,o #@,@            ",
"         @,@ o,o  @&             ",
"         @,@ O,O                 ",
"         @&  @&                  ",
"                                 ",
"                                 ",
"                                 ",
"                                 ",
"                                 ",
"                                 ",
"                                 "
};
