/* XPM */
static char *f44d7b87bdd64ce6df751f8152f4d952DcoUieemtqNKlGYV[] = {
/* columns rows colors chars-per-pixel */
"40 40 91 1 ",
"  c None",
". c black",
"X c #010102",
"o c #040201",
"O c #040301",
"+ c #060402",
"@ c #080503",
"# c #090503",
"$ c #090604",
"% c #0B0806",
"& c #05050A",
"* c #05060B",
"= c #07090F",
"- c #160E08",
"; c #190F09",
": c #180F0B",
"> c #1A1009",
", c #1E130B",
"< c #1E130C",
"1 c #080910",
"2 c #0C0E19",
"3 c #23150C",
"4 c #22170E",
"5 c #24170F",
"6 c #27180E",
"7 c #26190F",
"8 c #281A10",
"9 c #2B1B10",
"0 c #2E1D13",
"q c #2C1E13",
"w c #2F1F13",
"e c #352315",
"r c #382516",
"t c #3A2417",
"y c #392617",
"u c #3C2415",
"i c #3D2516",
"p c #3B2719",
"a c #0B1832",
"s c #0D1931",
"d c #3C2B20",
"f c #3D2C22",
"g c #402717",
"h c #452B1A",
"j c #472D1C",
"k c #482E1B",
"l c #492E1C",
"z c #4A301C",
"x c #4C311E",
"c c #4C301F",
"v c #4E331E",
"b c #4F331F",
"n c #402D22",
"m c #433024",
"M c #45322A",
"N c #4A372D",
"B c #533721",
"V c #543822",
"C c #553922",
"Z c #563922",
"A c #573A23",
"S c #513C30",
"D c #523D31",
"F c #523F33",
"G c #5D4332",
"H c #5E4334",
"J c #634735",
"K c #6A4833",
"L c #694B39",
"P c #684A3A",
"I c #714D37",
"U c #755137",
"Y c #7B563E",
"T c #10254C",
"R c #14274C",
"E c #1D3D7C",
"W c #1E3E7C",
"Q c #21407D",
"! c #4D5474",
"~ c #695D68",
"^ c #855D42",
"/ c #805B47",
"( c #865E45",
") c #A37457",
"_ c #A67759",
"` c #A8785A",
"' c #204A90",
"] c #224F99",
"[ c #24539B",
"{ c #2555A1",
"} c #2A61B0",
/* pixels */
"                                        ",
"                                        ",
"                                        ",
"                                        ",
"                                        ",
"                                        ",
"                                        ",
"                                        ",
"                  OO $$O.               ",
"                $$9e,lZ0.               ",
"               >lZABzZr@O               ",
"               7AAAAAAZB9O              ",
"              ;lAAAAAAAAv6.             ",
"              ;lAAAAAAAAv7.             ",
"              ;kZAAAZAZZv5.             ",
"              -ujZZAZZZvg6.             ",
"               ;igzVZzggi4.             ",
"               <jggigggh0.              ",
"               dYllgihvKH.              ",
"                n_/BvI`J.               ",
"                4U))))/e.               ",
"                4AAAAAAe.               ",
"                qZZVAAVp%               ",
"               m/MGSSFNPL.              ",
"               f~'}[]{{!H.              ",
"               1s'WTsEQR*               ",
"              21;r5*1>p5*2              ",
"               2222222222               ",
"                                        ",
"                                        ",
"                                        ",
"                                        ",
"                                        ",
"                                        ",
"                                        ",
"                                        ",
"                                        ",
"                                        ",
"                                        ",
"                                        "
};
