/* XPM */
static char *_a55a71342b544c0b7fa05027f3d0f3d0OHDu6KrX50KH6ln[] = {
/* columns rows colors chars-per-pixel */
"40 40 123 2 ",
"   c None",
".  c black",
"X  c #020101",
"o  c #030201",
"O  c #040302",
"+  c #030407",
"@  c #0A0704",
"#  c #0C0907",
"$  c #0F0C0D",
"%  c #110B06",
"&  c #130C07",
"*  c #120D0B",
"=  c #170C09",
"-  c #180F09",
";  c #18100A",
":  c #040911",
">  c #080A11",
",  c #0B0D16",
"<  c #0B0D17",
"1  c #0E0E14",
"2  c #0D0E17",
"3  c #0C0E18",
"4  c #0C0E19",
"5  c #151216",
"6  c #111119",
"7  c #121119",
"8  c #21160D",
"9  c #23140F",
"0  c #28180E",
"q  c #2C1B10",
"w  c #342115",
"e  c #362416",
"r  c #3C2818",
"t  c #1C2434",
"y  c #352F27",
"u  c #392B23",
"i  c #3B2F28",
"p  c #3B342C",
"a  c #402717",
"s  c #412817",
"d  c #402818",
"f  c #422818",
"g  c #422918",
"h  c #422919",
"j  c #422A19",
"k  c #432A19",
"l  c #462C1A",
"z  c #472D1B",
"x  c #492E1B",
"c  c #482F1C",
"v  c #4A2F1C",
"b  c #4C321E",
"n  c #4E331E",
"m  c #4E331F",
"M  c #4E341F",
"N  c #50341F",
"B  c #433027",
"V  c #44322A",
"C  c #513520",
"Z  c #513620",
"A  c #543822",
"S  c #553922",
"D  c #563923",
"F  c #573A23",
"G  c #5C3D29",
"H  c #5E3E2A",
"J  c #5F3F2B",
"K  c #524035",
"L  c #5B4639",
"P  c #61412C",
"I  c #62422D",
"U  c #684631",
"Y  c #6C4A32",
"T  c #6E4B32",
"R  c #6B4D3A",
"E  c #684F3B",
"W  c #714E35",
"Q  c #21477F",
"!  c #4C484F",
"~  c #614F46",
"^  c #695349",
"/  c #785541",
"(  c #7E5842",
")  c #795944",
"_  c #7E5D47",
"`  c #7B6D5A",
"'  c #6E666E",
"]  c #845C43",
"[  c #865D44",
"{  c #A27356",
"}  c #A47558",
"|  c #A9785B",
" . c #AC7B5D",
".. c #AD7D5F",
"X. c #8F7964",
"o. c #907D67",
"O. c #937D66",
"+. c #988066",
"@. c #AE8062",
"#. c #AE8668",
"$. c #A1896E",
"%. c #B48D70",
"&. c #3B5785",
"*. c #2E5393",
"=. c #23509A",
"-. c #2B599F",
";. c #3061A6",
":. c #2C65B5",
">. c #3569B3",
",. c #386CB5",
"<. c #7D7E91",
"1. c #787E97",
"2. c #827E83",
"3. c #858185",
"4. c #84899F",
"5. c #AF9C81",
"6. c #BB9F81",
"7. c #B6A186",
"8. c #B8A387",
"9. c #BCA78B",
"0. c #BFA78A",
"q. c #A1A5B3",
"w. c #C1AC8F",
/* pixels */
"                                                                                ",
"                                                                                ",
"                                                                                ",
"                                                                                ",
"                                                                                ",
"                                                                                ",
"                                                                                ",
"                                                                                ",
"                                                                                ",
"                              . . . .   . .                                     ",
"                              - C c 0 ; e . . .                                 ",
"                              o ; F b g m g C e .                               ",
"                            % r F F F F F F F C e .                             ",
"                          % g F F F F F F F F F F e .                           ",
"                          & z F N z F F C g x F F r .                           ",
"                          & s g g z F F m H { [ x m 0 .                         ",
"                          & k m r x F N H } ..| ] a q .                         ",
"                          & x F Y ] x Y ( L 0.o.9 - q .                         ",
"                          & s x W | ] R X.K w.o.- o o                           ",
"                            - s I ..#.8.0.7.w.0.` .                             ",
"                              ; g U ..%.w.w.w.7.) .                             ",
"                                - k U ..@...@._ #                               ",
"                                & a x ^ <.<.' w .                               ",
"                                & z F ~ 1.4.2.q .                               ",
"                              y 5.O.F ~ 4.q.3.G R .                             ",
"                              p w.$.F ! >.,.&.I / .                             ",
"                              2 t *.;.-.=.:.Q @ *                               ",
"                              > * B i : 5 V u + <                               ",
"                            4 4 2 7 7 2 4 7 7 < 4 4                             ",
"                              4 4 4 4 4 4 4 4 4 4                               ",
"                                                                                ",
"                                                                                ",
"                                                                                ",
"                                                                                ",
"                                                                                ",
"                                                                                ",
"                                                                                ",
"                                                                                ",
"                                                                                ",
"                                                                                "
};
