/* XPM */
static char *_a684d56e2a149bb9ae58ca99df1004dobh7XC0VNWAxbJAf[] = {
/* columns rows colors chars-per-pixel */
"64 64 32 1 ",
"  c #160E09",
". c #1B120B",
"X c #22160E",
"o c #2A1B12",
"O c #352216",
"+ c #391F21",
"@ c #422B1B",
"# c #523622",
"$ c #66442B",
"% c gray44",
"& c #7C7C7C",
"* c #ED7614",
"= c #976E53",
"- c #F5555D",
"; c #33984B",
": c #7D807F",
"> c #2ECC71",
", c #FFC825",
"< c #EDAB50",
"1 c #657392",
"2 c #16A085",
"3 c #00FFE5",
"4 c gray51",
"5 c gray52",
"6 c gray55",
"7 c #9B9B9B",
"8 c #92A1B9",
"9 c gray67",
"0 c #AFAFAF",
"q c #C49C82",
"w c #91FFF5",
"e c white",
/* pixels */
"$#O@Oo.@@@@$;;oo$#O@Oo.@;@@$oooOo7&&&&60%0777777OOO@$O@@@@@$oooo",
";;;O##X$$#$$o;##@@@O##X$;#$$o$###770000e7000&777@@@@##O$$#$$o$##",
"@@;;$oooo$#O@;;;$#$$#$$X;;O#$o@#$7&7777>0&77&777O##@$#oX##O#$o@#",
"$$#$$o$##@@@O#.;$o$@@@@.o;;$#O@@@70777&777&&e>&7.$$@$X.;;oo$#O@O",
"X##O#$Oo.@@@@$o;;o$#O@OX@O;@@@O@#&&77>2e7&77&&&7#XX.X$@o;;#@@@O#",
".oO@$###X$$#$$o$;#--@O---$O$#$$@O007777>0777000&$oooo$#O@O;$#$$#",
"X@Oo@@#$$X##O#$o;#$----@--O$o$@#$77777777&777777$o$##@@@O#;$o$@@",
"#@$O$#@@@.oO@$#O;;o.@@@@@O@$##O#O777&07e77000000#$o@#$#$$#;;##O@",
"@O#O$o@#;X@Oo@@@O;#X$$#OOoO$@@O#o777777>77e>7707$#O@Oo.@@@O;@@O@",
"@@O@$#@O.#@;O$#$$;$$X##@@:@#@#O#$7707700&7>20e>7@@@O##X$$#$#@#O#",
"OOoO$@#$o@;;O$o$@;@@.oO$X@O$@$O#O&777777>0777>2&$#$$#$$X##O$@$O#",
"##O@O@#O@;;O@$8#O;;$X@O.#@$O$@$#o7e>770077777700$o$@@@@.oO$O$@$#",
"$#O@Oo#;;;OoO$@@O@;.#@$@@@@$oooo$7>2777777007777$##O@--X@O@$oooo",
"@@@O##X;$#$$oOo.@@;@$oooo$#O@O##@777777077777777$@@O--.#@$$$o$##",
"$#$$#Oo.@@@@$##X$$$$$o$##@@@O#@#$#$$#$@$$$$$#Oo.@@@@-oooo$#O@O;;",
"$o$@@##XOo.@@@;$ooo$O$O@O$#$$#.o$o$@@o##o##O$##X$$#--o$##@@;O;;o",
"$##O@#$$##X$$#$$o$#;OO$$#o.@@@##$##O@o#@.##O$#$$X##-#$o@#$;;$###",
";;@O@@@@#$$X##O#$o@#;O;$$#$$$#OO$@@O@o$o OO:$@@@.oO--#O@O;.@@@OO",
"#;;;#@#$@@@;oO@$#O@Oo.O;;$$O##$$#@#O#oo$$@@$$@#$X@Oo-@@O#;X$$#$$",
"$@$;$@O.@#$;;Oo@@@O##X$OO;$$$O@@@@$oooo$#O@O#@O.#@$O$#$$#;$X##$O",
"O$@$##$o@O.#;;;;#$$#$$X##OOO$$$$#$$O$##@@@O###$o@O#O$o$@;;@.oO@$",
"$$$$##O@#$o@O#O;;$@@@@.oOO;OOOOOOOO$o@#$#$$#@#O@@@O@$##;;#$X@O@#",
"OO:$O#--#O@@@O@$;;O@#$X@O@;;@@$$$@$OOOOX$$#$$o$$$$$$$$OOO$.#@$@$",
"##O@O@O--o.OOoO$@@O@O.#@$@$;#Oo.@$$$$$oOOX$$$$$o$;;OOOO;#@$$$##$",
"o. $O#$o---O#$o$o. $O#$o@O#@;;#X$$#O$$O$OO##X$$#;OOO##@o@O#O$$o$",
"#@o$O#O@@@--#$#$#@o$O#O@@@O#$;O$X###$$$$oO$oo##;;OO$$o$##@O@$$#$",
"7&&&&60%0777777o$#O@Oo.@@@@#O@@;;;O$O$;;;O$o$$;OOO$$#$$55#$$oooo",
"77000077000&777#@@@O##X$$#$#o@#$;;$;@@$$$O#$OOOO###X$$#58$$##@##",
"7&77w770&77ww77#$#$$#$$X##O#$@O.$$#$$$#@$O;;OO$$$$$$$$55888$##@#",
"70777&737&&4&&7o$o$@@@@.oO@@$#$OOO$$$$o$OO$$O$$$$$$##X58888o$##@",
"&&777ew7&ew77&7#$##O@#$X@OoO@#OO@OOO$$#$O@$O@@@$#$$##55811$$o$##",
"007ew33073e000&O$@@O@O.#@$O#$#O;;@#OOOOOO@$O@$#@$#8$$5881$#O@O@#",
"77777777&777777$#@#O#$o@O#O#$$O$#;O8OO@$@#O#@$o$@$$$$5811@@@O#.o",
"7ew&077ew000000##X$$#$$;;##@$@O$$;$OOOoOOO$@#$#$$@585581.@@@@$oo",
"777777733377707$oooo$#O;;@#$#$O$$;O####Oo#O@#$@$$$588811X$$#$;;$",
"7707300&7000777$o$##@@@;#.o$@#O#$$o###OO#X##X$$#$;;$#88X$$#$$;$#",
"&777777007w300&#$Oo.@@;@$oooO@OO.$$@OO##Oo$oooo$#O;;@55ooo$#O;O@",
"700ew0073377700$###X$$;$$o$#oo#OOOOO$$o@##$o$##@@@O#.+$$##@@@;#.",
"777777777007777@@#$$X##O#$o@.@#$;;$#O#$o@##$Oo.@@@@$o++Oo.@@@;$o",
"777777077777777$#@@@.oO@$#O@X$@;;.o$@$#O@O$###X$$#$$o$++#X$$;;$o",
"$o$@@@@.oO@##X$$#$$o$##@@@@O$X;;$X@$o@@@O#@@#$$X##O#$o@++$X##O#$",
"$##O@#$X@Oo$oooo$#O@O@#$$#$$@;;O.#$$O$#$$#$#@@@.oO@$#O88+@.oO@$#",
"$@@O@O.#@$O$o$##@@@O#.o$$o$@$;#$o@$#O$o$@@$o@#$X@Oo@@@8O+$X@Oo@@",
"#;;;;$o@O#O#$Oo.@@@@$ooo$##O.;#O@@$O@$##O@$#@O.#@$O$#$$@+.#@$O$#",
"$@$O;O@@@<<$###X$$#$$o$#$8@O.;#o.$OoO$@@O@$;#$o@O#O$o$@#$o@O#O$o",
"O$@$;;.O<,*<@#$$X##O#$o@Oo.@X;$#$$o$##@@@OO;;O@@@O@$##O#O@@@O@$#",
"$$$$##@<<,*<*@@@.oO@$#O@##X$$;##$#$o@#$#$$Oo;o.OOoO$@@O#o.O---$@",
"OO:$O@#$<,*<o@#;;;;o@@@O@@$O;.oO$$#O@Oo.@@#;;$$#$$oOo.@X$$#-$-Oo",
"##O@O@O.@<<@#OOOOOO;;#$$#OOO$X$$o@@@O##X$$#;o.@@@@$##X$---@-@-##",
"o. $O#$o@O#$@O$o@O#O;;;@@;$$$$@$O$#$$#$$X#@;#XOo.@@@@$--X---@--@",
"#@o$O#O@@@OO;OO@@@O@$#;;o$o$#O@OO$o$@@@@.oO;;$O$7&&&&609%0777777",
"@$oooo$#;;;;;#o.OOoO$@@O;;#@@@O#@$##O@#$X@O$#$O$770000777000&777",
"$$o$##@@@O###X$$#$$oOo.@;@#$#$$#O$@@O@O.#@$O$O$#7&77q7770&77qq77",
"O#$o@#$#$$##Oo.@@@@$##X;;@Oo.@@@$#$$#o#@.##O$$@@70777&7q=7&&4&&7",
"@$#O@Oo.@@@@##XOo.@@@@$;@O#Oo.@@@@$oooo$#O@O$@$#700&&&&&&&00000&",
"o@@@O##X$$##O@@@O.#Oo.@;@@$##X$$#$$o$##@@@O#$$OO&&777qq77&qq77&7",
"O$#$$#$$X###o.O#$o@##X;;#$$#$$X##O#$o@#$#$$#####007qq===07==000&",
"O$o$@@@@.oO#$$$#O@@O;;;##O#@@@.oO@$#O@Oo.@@@#oO$777777777&777777",
"@$##O@#$X@O#$@$#oOO;@@.oO@$@#$X@Oo@@@O##X$$#@.@o7qq&0777qq000000",
"O$@@O@O.#@$o#$@$OO@@#$X@Oo@@O.#@$O$#$$#$$X##@.@o7777777====77707",
"$$$$##@@@:@#@#@#;;$@O.#@$O$#$o@O#O$o$@@@@.oO@O@@7707=007&7000777",
"OO:$O@#$X@OoO@@;OO:#$o@O#O$#O@@@O@$##O@#$X@O@O@O&7777777007q=00&",
"##O@O@O.#@$O#;;$##O#O@@@O@$#o.OOoO$@@O@O.#@$:oO#7&&&&&&&qqq===&7",
"o. $O#$o@O#O;;o$o. #o.OOoO$@@O@O.#@$O:oO#$$O@O@O700qq0077==77700"
};
