/* XPM */
static char *_1dfdb9e730e44fef899f6bcc90f3f94dM6Swgrt1KV8skL1[] = {
/* columns rows colors chars-per-pixel */
"64 64 247 2 ",
"   c #090A08",
".  c #18231E",
"X  c #2E312C",
"o  c #1D5D1E",
"O  c #274219",
"+  c #305918",
"@  c #1D611E",
"#  c #21691F",
"$  c #184B2E",
"%  c #175726",
"&  c #1C4A33",
"*  c #324724",
"=  c #35552E",
"-  c #1D6222",
";  c #286727",
":  c #39652A",
">  c #2B6933",
",  c #306F32",
"<  c #377439",
"1  c #61651E",
"2  c #53522D",
"3  c #454C39",
"4  c #665129",
"5  c #78533F",
"6  c #466E2E",
"7  c #497A37",
"8  c #0B314A",
"9  c #243949",
"0  c #1A7447",
"q  c #14446B",
"w  c #344C70",
"e  c #484C46",
"r  c #53524A",
"t  c #5B5A5D",
"y  c #6B5A49",
"u  c #755744",
"i  c #4F7154",
"p  c #6E6F46",
"a  c #4F5064",
"s  c #4A6B61",
"d  c #577965",
"f  c #656C66",
"g  c #787478",
"h  c #7D7D7E",
"j  c #8E681C",
"k  c #AB6D1C",
"l  c #945F3B",
"z  c #947032",
"x  c #AC7632",
"c  c #C25D39",
"v  c #A05C53",
"b  c #8A7142",
"n  c #BA694D",
"m  c #EA7056",
"M  c #09B108",
"N  c #1ABB16",
"B  c #29AB19",
"V  c #25B51D",
"C  c #24BB1A",
"Z  c #28B81C",
"A  c #2CBC1D",
"S  c #34BC1E",
"D  c #1D9622",
"F  c #329D2D",
"G  c #369B39",
"H  c #2BA928",
"J  c #37A82A",
"K  c #2DB624",
"L  c #3CB425",
"P  c #34BA21",
"I  c #3BBB25",
"U  c #38B528",
"Y  c #39A236",
"T  c #34AD36",
"R  c #499D2E",
"E  c #4C8436",
"W  c #528531",
"Q  c #568A35",
"!  c #5B8D3A",
"~  c #459C34",
"^  c #4A9A38",
"/  c #5D943A",
"(  c #569A39",
")  c #5C9B3B",
"_  c #61843F",
"`  c #62963C",
"'  c #629C3D",
"]  c #46A82C",
"[  c #41BA27",
"{  c #44B32B",
"}  c #4BB32D",
"|  c #45BC2A",
" . c #4BBB2D",
".. c #47A734",
"X. c #4DA333",
"o. c #4BAC31",
"O. c #53A336",
"+. c #53AC34",
"@. c #5AAC36",
"#. c #54A23B",
"$. c #5CA43C",
"%. c #56AD38",
"&. c #5DAB3B",
"*. c #48B534",
"=. c #52B433",
"-. c #5AB436",
";. c #54BA33",
":. c #5DB339",
">. c #5BB838",
",. c #65A43E",
"<. c #68A63F",
"1. c #66A93D",
"2. c #68AA3F",
"3. c #63B23C",
"4. c #67B43E",
"5. c #0CC90A",
"6. c #0DCB0A",
"7. c #12C50E",
"8. c #1CC60F",
"9. c #13CC0C",
"0. c #19CE0F",
"q. c #0BD306",
"w. c #0AD405",
"e. c #16D10C",
"r. c #1AC513",
"t. c #1CD010",
"y. c #27C417",
"u. c #23CD14",
"i. c #2CC31B",
"p. c #2CCA1A",
"a. c #33C41E",
"s. c #32C81E",
"d. c #2ECD2D",
"f. c #36C620",
"g. c #3CC424",
"h. c #45C229",
"j. c #51C03C",
"k. c #3B9644",
"l. c #369C5D",
"z. c #4B854E",
"x. c #47984A",
"c. c #599748",
"v. c #488753",
"b. c #588755",
"n. c #5C8C5D",
"m. c #579051",
"M. c #6A8E45",
"N. c #649C43",
"B. c #65994A",
"V. c #66984D",
"C. c #658C58",
"Z. c #669556",
"A. c #6B9C55",
"S. c #6A955C",
"D. c #6D9B5B",
"F. c #729C5D",
"G. c #49A247",
"H. c #58AD4B",
"J. c #66A540",
"K. c #69A543",
"L. c #64AA41",
"P. c #6AAD41",
"I. c #65A54A",
"U. c #6BA44B",
"Y. c #6CAA4B",
"T. c #74AC4C",
"R. c #6CB242",
"E. c #65B846",
"W. c #74B54C",
"Q. c #6CA253",
"!. c #62A952",
"~. c #74AB53",
"^. c #76A857",
"/. c #72A25C",
"(. c #79B556",
"). c #5E8463",
"_. c #5F9164",
"`. c #658866",
"'. c #738568",
"]. c #699463",
"[. c #729964",
"{. c #759D75",
"}. c #7AA564",
"|. c #78B16D",
" X c #79A27B",
".X c #57CC49",
"XX c #66C34C",
"oX c #73DA6F",
"OX c #918C2E",
"+X c #AC8E2F",
"@X c #D28C14",
"#X c #C89519",
"$X c #E9950D",
"%X c #CB9527",
"&X c #ECA922",
"*X c #ECB92D",
"=X c #F9CD30",
"-X c #8D9054",
";X c #87AE54",
":X c #ABAA50",
">X c #B18E68",
",X c #87B968",
"<X c #8AB075",
"1X c #8BB476",
"2X c #B4A572",
"3X c #C7B24F",
"4X c #C0B17E",
"5X c #B3D348",
"6X c #8AC16F",
"7X c #94C576",
"8X c #F8D74C",
"9X c #FEE44F",
"0X c #FEED74",
"qX c #074686",
"wX c #1C61A2",
"eX c #5C78A2",
"rX c #4C6CB4",
"tX c #35A09D",
"yX c #55858F",
"uX c #77978C",
"iX c #6F88B3",
"pX c #0686C4",
"aX c #0CC2D7",
"sX c #878687",
"dX c #929192",
"fX c #87AA86",
"gX c #92B08F",
"hX c #96BA88",
"jX c #96B695",
"kX c #A8B79F",
"lX c #8895A9",
"zX c #C6BDA8",
"xX c #9BC686",
"cX c #9BD38C",
"vX c #A5CC8C",
"bX c #A8C899",
"nX c #B0D29B",
"mX c #B2CBAE",
"MX c #BAD5AA",
"NX c #B5CBB2",
"BX c #FFF98D",
"VX c #C2D0B8",
"CX c #FFFFAA",
"ZX c #CBDCC4",
"AX c #D0DECE",
"SX c #CEE7CB",
"DX c #E5E9E5",
/* pixels */
",./ ! / <.R.2.B.w w c.' P.R.P.' 1.4.R.R.R.2.2.4.2.R.4.p.g.g.;.+.a.p.u.{ P.o.y.q.N #.R.2.2.R.,.,.P.;.1.=.1.:.H L. .| P.;.I a.-.R.",
"R.2.' / <.R.,.M.5 5 M.) 2.R.R.<.' 2.R.R.R.<.<.1.2.2.+.q.0.e.C #.Y J N O.P.c.H y.O.' 4.2.<.R.P.P.4.s.[ h.1.} 0 U p.:.P.U h.9.P P.",
"2.R.2.' 2.R.' b z b b ,.' 4.' ' 2.,.' O.+.3.-.2.R.2.$.J N 7.] J.,.1.1.,.R.P.P.1.R.' <.P.R.R.P.P.[ q.u.u.[ s q D N $.,.~ N t.~ $.",
"2.R.2.,.2.2.T.@X=X=X@X,X;X-.{ 2.{ @.2. .[ S :.<.R.<.4.2.@.%.,.R.' 2.2.,.R.1.R.2.4.' ,.P.<.,.P.,.~ C 7.6.G y u p H.,.4.1.$.3.J.,.",
"2.R.2.,.R.vX<X%XBXBX%X{.fX.XJ | f.) P.i.h.e.;.R.R.R.4.R.R.R.R.R.P.R.P.P.R.R.R.R.R.2.R.' ,.,.P.P.,.1.} { p z +Xl ` 2.R.' J.P.' P.",
"2.R.1.1.vXkX> j 3X3Xj o jX.XJ 5.V ,.&.Y 7.N ~ ' <.,.<.,.' ' J.,.R.' R.P.' P.,.J.P.R.R.R.J.2.R.,.1.R.' T.+X&X9X$X:X1XY.,.' ,.' 2.",
"R.P.2.' hXv.- $ $ $ $ n.ZX(.^ } &.L.P.) =.( J.,.P.' J.,.P.P.P.' ' ,.R.P.,.<.' P.' P.A.J.P.R.L.<.,.' <XjX+X8XCX*X-X{.<XY.R.R.,.' ",
"' 2.R.P.(.nXgX].b.o v.hX,X2.R.R.R.P./ Q ,.2.,.2.R.P.` 6 W R.,.' P.,.2.R.R.,.' Y.2.,.[.J.R.P.` R.1.~.NXz.1 +X:Xx + C.bX' P.R.P.P.",
"P.P.1.,.,.T.7XnXAXbX1X,X,.L.2.P.,.,.P.<.P.R.<.2.R.J.6 e 3 7 4.R.P.P.R.R.<.P.Y.[.2.P.}.P.2.R./ R.J.(.gX, % $ & $ > mXhX2.R.2.<.<.",
"R.P.,.P.,.2.2.R.T.~.,.' 2.2.' R.R.P.R.J.2.R.P.P.P.J.'.sXsXC.,.,.<.' <.P.P.,.N.,X<.V.C.~.~.2.' P.` ' ,XNX{.{.7 <  X7X<.R.2.<.2.<.",
"R.,./ P.R.2.2.' ,.1.R.R.R.R.R.R.<.,.,.' <.R.' ,.2.W f h v s ' 2.P.P.R.2.' U.A.{.V.S.[./.A.P.U.,.' ' ( ^.1XZXNXhX<XR.2.R.' ` 2.R.",
",.' 2.R.2.,.2.R.R.R.P.R.,.2.' ,.<.J.,.P.1.' ' P.,.` 6 = : E 4.2.,.R.R.P.' U.C.d C.A.m./.~.Z.A.Y.J.P.,./ ,.L.Y.R.2.4.2.2.2.R.2.2.",
"2.,.P.P.,.R.P.R.R.R.,.<.2.R.R.,.2.<.2.2.J.,.2.1.<.,.R.P.` 2.4.R.,X;XR.K.D.[.`.d ).Z.d ).S.A.K.N.P.R.J.J.2.P.' ,.P.' P.' ,.4.P.P.",
",.,.R.P.,.R.,.' 4.R.<.<.R.R.2.P.2.<.J.2.' 2.R.2.' P.,.,.<.2.2.;XzX>XP./ A.T.V.C.).d ).d d A.>.R R @.P.R.R.P.' ' P.,.2.P.R.,.P.` ",
"P.R.2.! <.,.<.<.P.2.2.P.2.4.2.R.2.N.Z.P.P.R.<.R.P.2.P.,.2.2.K.x m p J.3.3.4.@.P.G.k.d G m.P.L L P 4.' ' R.P.P.2.,.2.P.R.' P.2.,.",
"P.,.2.,.P.P.' P.R.P.<.' <.1.U.U.2.U.}.4.2.P.R.R.1.<.P.P.4.1.;X*Xm c K.o.S S X.1.A Y J f.I.&.i.P 9.R 2.P.R.<.,.R.J.R.R.<.,.R.,.J.",
"P.,.' 2.2.P.2.R.' ! P.R.R.2.A.F.2.K.F.2.R.,.P.2.R.P.R.P.P.P.5X5Xn c <.0.8.8.C +.J U 6.H L.( Y 5.A ^ R.R.2.) W 4.' 2.,.' 2.4.2.P.",
",.,.P.R.R.R.1.R.P.<.P.2.R.,.^./.V.S.D.F.U.,.<.' P.1.' R.,.L.tXeXn s i H r.6.N ( $.( =.,.<.,.&.-.,.,.1.P.$.Q ` j.=.} -.2.2.2.K.,.",
"R.,.R.,.J.2.R.,.,.4.P.2.2.V.A.`.C.A.F.F.I.Q.Y.2.2.R.,.2.P.R.yXZ.Z.w s ,.} J =.,.,.R.R.P.&.+.>.@.2.]  .:.S 3.1.I  .a.4.,.P.2.,.2.",
"R.2.R.' ' ' 2.,.P.2.2.,.U.[.).d b.B.z.Z.Y.Y.Q.P.P.P.P.2.R.' 1.<.a a t N.P.,.2.P.4.2./ 2.h.g.I R ,.p.] o O = ( S y.e.j.E.2.P.,.R.",
"2.2.2.4.R.2.2.R.J.P.4.B.m.!.`.x._.d G G *.L.K.J.2.2.P.R.4.,.,.M.u u u p ,.,.2.2.2.2.,.4.e.t.t.u.+.J 7 f g f 7 F 9.I G.E.P.P.2.P.",
"P.2.' 2.J.P.R.;.J | @.N.P =...L d v.H G K H.:.1.&.2.,.R.R.1.( j k %X%Xk 1.' 2.R.P.,.P.$.J N 5.V O.1.C.dXdXdXC.$.1.2.E.E.2.2.K.,.",
"2.<.7 * * + 7 u.f.f.| %.K i.9.K G.v.H q.N K [ g.-.2.' 2.2.R.,XzX@X0X9X%XbXhXN.P.,.' P.P.,.-.o.-.<.1.3 e e e 6 ` P.P.E.L.P.2.' 2.",
"2.` X t t t X M 9.q.9.P K U P C ;...Z I :.Z { u.1.' P.R.T.MXAXC.@X0X0X+X< <X,X,.R.P.P.P.P.R.J.J.2.<.,.W W / ,.` J.R.R.E.2.2.<.R.",
"2.6 t v sX-Xa + K N 5.y.p.h.O.K g.e.K L.( J e.7...2.P.1.,XDXn.o 2 p p 2 > NX,XY.<.2.' ,.R.R.' ' P.<.,.2.' P.2.J.' P.L.E.P.L.P.,.",
"<.* uXuXsXsXeX2 4.$.N 9.q.7.X.#.^ U O.1.R.( I @.L.2.2.2.~.ZXfX< % % % % fXbXK.R.P.4.<.' 2.R.P.P.R.R.P.P.J.1.2.R.P.,.R.E.P.P.P.,.",
"7 3 eXv sXh g 3 Q P.$.L V L J.2.R.,.1.,.R.2.R.<.P.P.2.,.4.,XZXmXmXbXz.<X7XY.4.L +. .N.P.R.,.,.,.P.R.P.<.P.2.R.1.P.R.R.' J.P.` P.",
"c.O   .       O R.P.J.P.1.R.' P.,.,.P.R.R.2.2.2.' P.,.) } 3.=.~.cXcXjX.X=.' } [ i.3.,.R.2.P.2.,.2.R.P./ ,.R.R.,.,.P.P.' P.R.1.R.",
"2.( W W Q W W / R.1.P.J.P.R.2.2.P.P.P.L.b T.' <.P.<.R.-.p.I ] 3.I I S y.3.P.P f.q.I ,.1.2.P.P.' 1.R.P.2.R.Y.V.P.' P.,.P.P.2.L.,.",
"' 2.,.R.R.2.` ,.L.' ,.P.R.P.' 2.,.P.,.,.' <.2.<.P.2.R.g.q.t.0.I ..J r.V &.P.~ N a.^ ) L.E.,.<.<.P.R.B.N.P.~.^.R.P.1.R.J.2.P.P.<.",
"P.4.' ,.R.2.P.4.R.2.P.@.1.+.4.1.P.R.P.J.<.2.2.<.2.R.P.~ Z N 7.~ ,.$.$.&.,.P.J.L.4.P.' R.XXXXJ.<.4.<./.V.1.Q.^.1.J.R.R.,.<.2./ P.",
"1.,.,.1.R.=.+.1. .1.R.g. .I 1.' ,.R.P.,.2.2.<.2.,.' R.,.4.o.=.,.! P.R.R.P.J.P.P.2.R.,.R.L.XXR.R.2.! F.^.U.].Q./.J.R.P.,.P.P.,.<.",
"L  .L &.4.a.] L  .R.R K g.y.1.<.2.R.2.2.4.2.2.1.J.P.P.P.R.P.R.P.P.P.,.R.,.P.R.2.' P.2.T.2.R.E.2.>.!.D.H.A.Z.T H.D Q P.,.1.$.' 2.",
"e.a.i.I %.A a.9.L K.^ B q.C ^ ,.R.P.2.' 2.2.2.2.' P.R.P.' R.' ' R.R.P.P.2.R.R.2.L.R.R.h.>. .3.1.I c.k.k.A.O.*.E 8 8 i L.R.P.<.1.",
"7.7.q.N $.#.^ J $.,.' ^ L ,.2.R.2.! ,.2.R.2.,.2.P.R.' ' U.K.2.R.2.2.,.J.R.R.,.2.P.P.3.u.g.S ;.O.d.K N k.`.x.K B 9 qXx.E.E.! ' ,.",
"( P C o.P.R.` ,.R.R.P.P.P.4.P.2.P.2.Y.OX>X,X1.2.,.P.P.J.~.^.R.' P.P.,.P.,.R.P.,.,.P.X.6.e.q.i.&.~ J K ..d z.F D qXpX0 *.E.,.2.,.",
"2.2.,.,.R.2.R.R.R.2.P.' P.J.P.2.' 2.R.4Xn kX;X<X,XZ.V.<.~.^.P.,.P.,.' 2.2.R.,.R.R.R.$.{ V 7.K &.=.J. .J `.Y x.= q aXqXk.R.' 1.,.",
"2.1.' 2.P.1.,.J.P.R.<.P.R.' P.<.2.P.<.,XzX,XeXrXuXfX~.J.A.A.U.N.2.R.2.2.' ,.R.2.2.R.R.P.&.[ p.g. .E.I I K y.c.6 qXpXaXl.<.,.<.,.",
"2.P.2.P.' P.,.R.L.b.! ,.R.R.<.R.2.<.2.2.1XiXwXrXlXkX}.A.S.D.[.P.' ,.R.R.,.2.R.R.P.2.1.' ' a.q.9.0.} ..F N K $./ 9 q wXq Q ' ,.,.",
"R.,.,.R.P.P.' J.b.s 4.R.P.<.2.R.,.<.2.' hXiXrXrXlX].d A.m.C.S.Q.C.V.R.2.2.,.R.R.' 2.R.R.1.~ C N r.#.P.L.L.( / s 4 2   : 1.) ,.2.",
"2.<.' 4.2.J.<.B.a w M.<.2.2.R.2.` 1.P.R.,XiXiXiXjXf d m.C.).m.[.=.^ *.3.2.,.2.R.<.2.2.,.,.2.@.=.>.R.R.R.R.2.B.u 4 2 6 ,.2.2.2.R.",
"1.' P.R.P.' L.p u u i ! <.2.R.' ` P.,.R.R.,XhX!.E.].k.k.v.G i `.I | f.4.,.! 2.,.' 2.' ' ,.2.R.R.,.P.R.R.,.,.p b b l _ 4.4.2.<.<.",
"R.2.R.,.<.2.P.z %X%Xk 2.1.R.2.R.P.,.P.,.P.h.I S +.L.K k.T T s m.A i.e.>.,./ 1.R.' <.) / ' ,.' ,.R.,.,.2.,.R.+X&X=X$X;X6XN.' 2.2.",
"R.,.R.2.2.P.,X@X9X9X%X7X7XR.R.R.R.P.P.,.) 7.t.0.u.%.H F 5.F c.x.Y 9.L #.,.' P.R.<.,.4.' ` P.,.,.P.4.,.P.7XxX+X9XCX*X-XfX<X' R.4.",
"P.P.1.,.;XNX[.#X0XBX#Xi <X,X' ,.<.2.2.<.$.H N 5.Z ( ) L.:.,.' ' $.@.R.2.2.,.2.P.2.P.R.,.<.,.' ,.,.,.2.;XZXv.1 %X3Xx + ].vX4.3.2.",
"` R.' ,.nX{.@ 4 p b 2 ; NX,X' <.,.,.R.P.<.,.] o.3.P.' P.R.2.<.' 1.2.R.2.' P.R.P.<.' ,.R.P.' 1.` ` ' ,.|.uX- % & = & > NXxXS 4.<.",
",.2.R.L.7X].< % % % % {.MXW.R.R.4.<.R.K.' P.2.R.R.2.Q ,.R.R.` s c.4.' 2.P.2.' <.R.R.R.R.R.P.J.P.` ,.,.2.xXbX_.v., < {.oXi.S 2.) ",
"P.R.R.` I.vXmXjXjX<  XhXY.,.2.R.R.R.P.,.' P.2.R.P.,.! 2.2.2.b.w B.2.<.,.R.2.R.R.P.2.R.R.,.R.P.,.2.2.1.2.E..XoXSXmXhX|.J r...,.( ",
",.R.' J.R.P.~.7XMXnXfXT.<.<.2.R.P.P./ 2.2.P.,.P.,.' P.R.P.P.y t p 1.N.R.R.<.' <.2.2.2.,.2.P.,.,.1.' <.<./ J N y.G.L.1.,.1.P.,.1.",
"' P.' P.R.R.,.Q.1.P.[./ 2.4.R.' J.P.' ,.R.P.<.P.R.R.R.1.L.M.y u y B.2.R./ ,.P.R.R.<.2.<.2.P.Y.Y.4.2.4.2.2.P.@.-.>.P.' 2.R.1.,.R.",
"/ P.1.R.R.,.Y.}.P.J.F.J.' R.<.' 2.1.J.P.R.,.P.P.2.' ,.2.P.OX@X=X@XOXL.R.' ,.2.R.R.<.<.K.Y.<.A.F.2.J.<.<.R.R.R.J.L.J.1.P.P.<.L.P.",
"/ ,.2.P.R.Y.T.}.Y.S.]./.C.P.R.<.' 2.P.R.P.2.' ,.2.2.4.(.7X+X8XCX*X2XbX,X2.R.2.R.,.' 1.D.U.,.V.S.' ,.' ' R.R.P.2.R.,.J.R.2.P.' ,.",
"P.J.<.<.2.U.D.`.A.A.D./.V.V.Q.P.I.L.P.1.! <.P.4.R.2.W.VX|.1 =X0X%X: b.hXP.2.R.J.2.R.P.F.~.Y.S.Q.^.Y.2.R.R.R.<.,.2.P.P.2.! ,.R.R.",
"R.R.,.P.U.Z.`.d ).U.C.].^.I.B.7 = & = ' P.2.' ,.2.,.6XgX# = 3 r = ; jXnX2.2.P.' R.' Z.F.].Z.D.D.F.N.B.,.` ` 2.2.R.2.4.2.P.P.2.R.",
"R.J.' J.Z./.`.x.n.n.x.d ].*.h.7 g v t ! 2.1.P.,.2.) ;.hX<X< > % - z.VXW.' R.' <.<.B.].n.d Z.Z.v.S.Q.A.A.' P.,.2.,.R.,.' 2.R.P.R.",
"R.R.[ } | &.( S G.G.x.s l.I a.!.sXdXsXA.1.a.} h.R.| h.XXcXbXAXfX|.6XXX2.R.2.` <.U.].[.d d C.).).d S.2.-.2.;.<.' ' P.,.P.R.2.' ,.",
"4.3.8.a.s.h.+.K y.r.G C.^ V q.- X X X ! h.u.p.h.=.U U 0.r.L.,X|.d.q.J ,.P.J.R.R.L.U.$.S.Z.x.).n.k.C.4.S L  .,.,.P.<.' 2.R.2.2.R.",
"R.O.7.7.q.V $.X.Y U L.R.L...h.: O O O 6 U 5.6.6.{ $.^ U o.P.L.#.U ;.,.2.R.L.' ,.S } I P.;.T v.H z.b.h.| r.I ' R.<.J.<.2.2.2.P.2.",
"2.,.O.K C =.P.2.L.J.J.2.2.2.1.,.R.P.R.P.$.{ V P 1.J.J.' L.R.R.R.W.R.R.R.' ,.P.=.9.a.B | *.U N N X.I.F C q.J / ,.4.,.K.4.P.P.' @.",
"/ ) 4.E.R.R.2.' P.J.L.P.2.P.2.R.R.R.R.P.P.P.,.P.L.' P.J.P.R.P.R.R.L.J.R.,.,.P.] 5.7.q.U $.^ *.{ 1.2.,...} ,.<.<.2.P.;.,.] <.-.g.",
",.P.2.P.R.R.,./ 2.R.R.R.R.R.R.R.R.R.P.1.2.P.2.R.,./ P.R.R.P.2.,.2.P.P.P.1.R.,.L.o.K S $.P.P.,.P.R.1.R.<.P.J.<.R.R.:.y.h. .4.J h.",
",.R.2.R.,.2.2.R.R.2.R.2.2.2.2.R.,.P.<.P.<.R.2.R.<.R.P.1.R.` 2.' P.R.,.J.R.P.P.,.2.R.P.' P.,.' P.P.P.,.1.2.P.P.R.,.I q.e.0.I ..] ",
"R.,.R.' P.,.' R.P.P.P.2.2.2.2.R.,.,.R.2.,.' R.' ' P.R.2.2.,.2.,.2.,.,.P.,.P.P.,.P.,.R.R.,.P.P.P.2.P.,.P.R.P.P.R.' ~ A N 9.~ ,.) ",
",.P.R.L.2.2.R.2.2.' 1.R.R.R.R.R.,.2.,.' ,.,.2.P.R.2.P.' 2.2.,./ ' <.,.,.,.P.' ,.,.2.P.<.P.R.,.,.P.' <.,.,.P.J.,.P.,.3...o.P.P.L."
};
