/* XPM */
static char *e0f74df8e75042f0a461a2e9f4628b89LfSIDjaBM43d9T3m[] = {
/* columns rows colors chars-per-pixel */
"40 40 46 1 ",
"  c None",
". c #2F2F2E",
"X c #333332",
"o c #343433",
"O c #353534",
"+ c #373736",
"@ c #393938",
"# c #3B3B3A",
"$ c #6C6C6B",
"% c #6F6F6F",
"& c gray44",
"* c #727272",
"= c gray46",
"- c #767676",
"; c #7A7A79",
": c gray50",
"> c #838382",
", c #848483",
"< c #858584",
"1 c gray52",
"2 c #868685",
"3 c #888888",
"4 c #898989",
"5 c #8A8A89",
"6 c gray54",
"7 c #8B8B8A",
"8 c #8B8B8B",
"9 c #8D8D8D",
"0 c #8F8F8E",
"q c gray57",
"w c #939392",
"e c #959594",
"r c #B6B6B6",
"t c #B7B7B7",
"y c #C1C1C1",
"u c gray76",
"i c #C5C5C5",
"p c #C6C6C6",
"a c #C8C8C8",
"s c #CACACA",
"d c #CBCBCB",
"f c gray84",
"g c #DADADA",
"h c gray86",
"j c #DFDFDF",
"k c gray88",
/* pixels */
"                                        ",
"                                        ",
"                                        ",
"                                        ",
"                                        ",
"                                        ",
"                                        ",
"                                        ",
"                                        ",
"                                        ",
"                                        ",
"                                        ",
"                                        ",
"                                        ",
"                      w  w              ",
"                     w&.X&#             ",
"             w      w;a77&              ",
"            w77     +tg3i-              ",
"            O>22    Otj0dy#             ",
"             .+f.Ow9Orsssy#             ",
"              o,77779dsdi%              ",
"               #kkkkkkkjf.              ",
"               #g7jkg7jsi2              ",
"              w-:o,,27>%-f#             ",
"              X&   eo2  -:              ",
"                                        ",
"                                        ",
"                                        ",
"                                        ",
"                                        ",
"                                        ",
"                                        ",
"                                        ",
"                                        ",
"                                        ",
"                                        ",
"                                        ",
"                                        ",
"                                        ",
"                                        "
};
