/* XPM */
static char *d2b84ff267674f4fce5f4bef40ededeaLxZDQ7cy8YWhciO2[] = {
/* columns rows colors chars-per-pixel */
"64 64 26 1 ",
"  c black",
". c #391F21",
"X c #5D2C28",
"o c #4F7A36",
"O c #37474F",
"+ c #6D6D6D",
"@ c #B71C1C",
"# c #D50000",
"$ c #FF0342",
"% c #FF0349",
"& c #FF1744",
"* c #BF6F4A",
"= c #EF5350",
"- c #FF5252",
"; c #589137",
": c #65AB3F",
"> c #FFC107",
", c #FFEB3B",
"< c #1976D2",
"1 c #304FFE",
"2 c #536DFE",
"3 c #0098DC",
"4 c #448AFF",
"5 c #8C9EFF",
"6 c #94FDFF",
"7 c white",
/* pixels */
":::;:o:;:154;:::::::;:::::::::::;::;:;::;:o::::;:;::154::::;&=-;",
":::::o:;<4>1<:o:;::::-=&o::;::5::;o;::::::o::::::::<4>1<:::=#>=;",
":;o;:::::4<1::o:;::::=>#=::;:154:::::::&=-:::;o;;::;4<1::;o-##&:",
":;o;:&=-:;<:;::::::;:&##-:::2<,<2:::::=#>=;::;o;;::;:<;::;o;@:::",
"::::=#>=::::;:XXXXXX.;:@::::<4>1<:::;:-##&;.XXXXXX::::;::::::;::",
":;::-##&;:XXXXXXXXXX.;:::o::;4<1::;o;::@:::.XXXXXXXXXX:::;:::;::",
"o;:::@::;:XXXXXXXXXX.:::::::;o<:::::::::o::.XXXXXXXXXX:;o;::::::",
":::;:OXXXXXXXXXXXXXX.OOOOOOOOOOOOOOOOOOOOOO.XXXXXXXXXXXXXXO;::o:",
":::;:OXXXXXXXXXXXXXX.OOOOOOOOOOOOOOOOOOOOOO.XXXXXXXXXXXXXXO;::o:",
":o:::OXXXXXXXXXXXXXX.OOOOOOOOOOOOOOOOOOOOOO.XXXXXXXXXXXXXXO:::::",
":o::;OXXXXXXXXXXXXXX.OOOOOOOOOOOOOOOOOOOOOO.XXXXXXXXXXXXXXO:;o;:",
";o;::OXXXXXXX...XXXX.                      .XXXX...XXXXXXXO:;:::",
":;:::OXXXX3336..XXXX.                      .XXXX..6333XXXXO:;o;:",
":5o;:OXXXX3336..XXXX.                      .XXXX..6333XXXXO;::::",
"154;:OXX776636..XXXX.                      .XXXX..636677XXO;;o;5",
"4>1<;OXX776636..XXXX.                      .XXXX..636677XXO;::15",
"4<1:;OXX776636..XXXX.                      .XXXX..636677XXO::<4>",
";<:::O77776636..XXXX.                      .XXXX..63667777O:;o4<",
";:o::O77776636..XXXX.                      .XXXX..63667777O;::o<",
"::o::O..776636..XXXX.                      .XXXX..636677..O:::::",
"::;;:O..776636..XXXX.                      .XXXX..636677..O::;o;",
"::o;:O..776636..XXXX.                      .XXXX..636677..O:::::",
";::::O..776636..XXXX.                      .XXXX..636677..O:;:::",
";:::oO..776636..XXXX.                      .XXXX..636677..O:;&=-",
"::&=-OXX776636..XXXX.%                    %.XXXX..636677XXO:=#>=",
":=#>=OXX776636..XXXX. %                  % .XXXX..636677XXOo-##&",
":-##&OXX776636..XXXX. %%                %% .XXXX..636677XXOo;@::",
"::@::OXX776636..XXXX.  %%%            %%%  .XXXX..636677XXO:::;:",
";::o:OXX776636..XXXX.  %%%%%        %%%%%  .XXXX..636677XXO:::;:",
";::::OXX7766**XXXX++   %%%%%%      %%%%%%   ++XXXX**6677XXO:::::",
":::o:OXX7766**XXXXX         %      %         XXXXX**6677XXO:;::o",
":::o:OXX7777XXXXXXXX.                      .XXXXXXXX7777XXO:;::o",
"::::;OXXXXXXXXXXXXXX.                      .XXXXXXXXXXXXXXO:::::",
"::::;OXXXXXXXXXXXX++                        ++XXXXXXXXXXXXO::;o;",
";:o::OXXXXXXXXXXXXX                          XXXXXXXXXXXXXO::o::",
";::o:OXXXXXXXXXXXXXX.                      .XXXXXXXXXXXXXXO::5::",
":o::;OXXXXXXXXXXXX++                        ++XXXXXXXXXXXXO:154;",
"::::;OXXXXXXXXXXXXX                          XXXXXXXXXXXXXO<4>1<",
"::;::OXXXXXXXXXXXXXX.                      .XXXXXXXXXXXXXXO:4<1;",
"::;:oOXX7733XXXXXXXX.                      .XXXXXXXX3377XXO::<::",
";:::oOXX776633XXXXXX.                      .XXXXXX336677XXO::o::",
";;:::OXX776633XXXXXX.                      .XXXXXX336677XXO::::;",
":;::;OXX776636..XXXX.                      .XXXX..636677XXO::;:;",
"::::;OXX776636..XXXX.                      .XXXX..636677XXO::::;",
":::::OXX776636..XXXX.                      .XXXX..636677XXO;:;:;",
";:5::OXX776636..XXXX.                      .XXXX..636677XX-=&::;",
":154:OXX776636..XXXX.                      .XXXX..636677XX=>#=:;",
"2<,<2O77776636..XXXX.                      .XXXX..63667777&##-:;",
"<4>1<O77776636..XXXX.                      .XXXX..63667777O:@;:;",
";4<1:O..776636..XXXX.                      .XXXX..636677..O:;;:;",
"::<::O..776636..XXXX.                      .XXXX..636677..O:;:::",
"::;::O..776636..XXXX.                      .XXXX..636677..O::o;:",
";::::O..776636..XXXX.                      .XXXX..636677..O::o;:",
";:&=-OXX776636..XXXX.                      .XXXX..636677XXO:;;o;",
":=#>=OXX776636..XXXX.                      .XXXX..636677XXO:;:5:",
":-##&OXX776636..XXXX.                      .XXXX..636677XXO::154",
"::@:;OXX776636..XXXX.                      .XXXX..636677XXO:<4>1",
"::::;OXXXX***6..XXXX.                      .XXXX..6***XXXXO::4<1",
"::o::OXXXX***6..XXXX.                      .XXXX..6***XXXXO::;<;",
"o:o::OXXXXXXX*..XXXX.                      .XXXX..*XXXXXXXO:::;:",
"o:::;OXXXXXXXXXXXXXX.OOOOOOOOOOOOOOOOOOOOOO.XXXXXXXXXXXXXXO:::::",
":;::;OXXXXXXXXXXXXXX.OOOOOOOOOOOOOOOOOOOOOO.XXXXXXXXXXXXXXO:;::o",
":;o::OXXXXXXXXXXXXXX.OOOOOOOOOOOOOOOOOOOOOO.XXXXXXXXXXXXXXO:;::o",
"::::$OXXXXXXXXXXXXXX.OOOOOOOOOOOOOOOOOOOOOO.XXXXXXXXXXXXXXO$::::"
};
