/* XPM */
static char *cfd975f3aa524ac983c5ae4a88189139rczq8SfxPgNkdyI4[] = {
/* columns rows colors chars-per-pixel */
"40 40 13 1 ",
"  c None",
". c #2F2F2E",
"X c #383837",
"o c #3B3B3A",
"O c #3D3D3C",
"+ c #3E3E3D",
"@ c #ACACAC",
"# c gray71",
"$ c gray72",
"% c #D4D4D3",
"& c gray83",
"* c #DDDDDD",
"= c gray88",
/* pixels */
"                                        ",
"                                        ",
"                                        ",
"                                        ",
"                                        ",
"                                        ",
"                                        ",
"                                        ",
"                                        ",
"                                        ",
"                                        ",
"                                        ",
"                                        ",
"                                        ",
"                +O  OO                  ",
"           OO   .@OO..                  ",
"          O&.   .#&&&.                  ",
"          .=.   .#=O$@.                 ",
"          .=.   .#=%**.                 ",
"          .=..OO.#$$$$.                 ",
"           O&&&&&****o                  ",
"           .========*.                  ",
"           .=o===o*#=.                  ",
"           .$.ooO.=o=.                  ",
"           .X .. .o O.                  ",
"                                        ",
"                                        ",
"                                        ",
"                                        ",
"                                        ",
"                                        ",
"                                        ",
"                                        ",
"                                        ",
"                                        ",
"                                        ",
"                                        ",
"                                        ",
"                                        ",
"                                        "
};
