/* XPM */
static char *_344249950b44684f0a7e05b831b8e20lsjsuHFJOWgKxkfF[] = {
/* columns rows colors chars-per-pixel */
"64 64 15 1 ",
"  c black",
". c #131313",
"X c #4F7A36",
"o c #2A2F4E",
"O c #8D5524",
"+ c #9C693D",
"@ c #B37641",
"# c #408C3B",
"$ c #589137",
"% c #65AB3F",
"& c #36C72C",
"* c #33984B",
"= c #FFC825",
"- c #F389F5",
"; c #C7CFDD",
/* pixels */
"XXXXX%%%%%%%%%$$$$%%%%%%%%%%%%%%%%%%%%%%%$$$$$XXXX$$$$$%%%%%%%%%",
"XXXXX%%%%%%%%%$$$$%%%%%%%%%%%%%%%%%%%%%%%$$$$$XXXX$$$$$%%%%%%%%%",
"XXXXX%%%%%%%%%$$$$%%%%%%%%%%%%%%%%%%%%%%%---$$XXXX$$$$$%%%%%%%%%",
"XXXXX%%%%%%%%%$$$$%%%%%%%%%%%%%%%%%%%%%%%-----XXXX$$$$$%%%%%%%%%",
"XXXXX%%%%%%%%%$$$$%%%%%%%%%%%%%%%%%%%%%---==----XX$$$$$%%%%%%%%%",
"%%%%%%%%%%%%%%$$$$XXXXX$$$$%%%%%%%%%%%%---===-=-=%%%%%%%%%%%%%%%",
"%%%%%%%%%%%%%%$$$$XXXXX$$$$%%%%%%%%%%%%%--==----%%%%%%%%%%%%%%%%",
"%%%%%%%%%%%%%%$$$$XXXXX$$$$%%%%%%%%%%%%-----%%--%%%%%%%%%%%%%%%%",
"%%%%%%%%%%%%%%$$$$XXXX          %%%%%**--%--%%---%=%%%%%%%%%%%%%",
"%%%%%$$$$%%%%%%%%%%%%%          %%%%%****%%%%=%--%%%%%%%%%%%%%%%",
"%%%%%$$$$%%%%%%%%%%%%%          %%%%***%%=%%%%%%%%%%%%%%%%%%%%%%",
"%%%%%$$$$%%%%%%%%%%%%%    &&&&&&  %%***###   %%%%%%%%=%%%%%%%%%%",
"%%%%%$$$$%%%%%%%%%%%%%    &&&&&&   #**####   %%=%%%%%%%%%%%%%%%%",
"%%%%%$$$$%%%%%%%%%%%%%    &&&&&&   #**####   %%%%%%%%%%%%%%%%%%%",
"%%%%%$$$$%%%%%XXXX%%%%       &&&&&&####   %%%%XXXX%%%%%$$$$%%%%%",
"%%%%%$$$$%%%%%XXXX%%%%       &&&&&&####   %%%%XXXX%=%%%$$$$%%%%%",
"%%%%%$$$$%%%%%XXXX%%%%       &&&&&&####   %%%%XXXX%%%%%$$$$%%%%%",
"%%%%%$$$$%%%%%XXXX%   OOOOOOO   ###OOOO      %XXXX%%%%%$$=$%%%%%",
"%%%%%%%%%%%%%%XXXX%   OOOOOOO   ###OOOO      %XX=X%%%=%$$$$%%%%%",
"%%%%%%%%%%%%%%XXXX%   OOOOOOO   ###OOOO      %XXXX%%%%%$$$$%%%%%",
"%%%%%%%%%%%%%%XXXX%   OOOOOOO@@@@@@@@@@@@@OOO       %%%$$$$%%%%%",
"%%%%%%%%%%%%%%XXXX%   OOOOOOO@@@@@@@@@@@@@OOO       %%%$$$$%%%%%",
"%%%%%%%%%%%%%%XXXX%   OOOOOOO@@@@@@@@@@@@@OOO       %%%$=$$%%%%%",
"$$$$$%%%%%%%%%%%%%%   OOOOOOO@@@@@@@@@@@@@OOO       %%%%%%%%%%%%",
"$$$$$%%%%%%%%%%%%%%%%%    @@@    ;;@@@@@@@+++++++=++   %%%%%%%%%",
"$$$$$%%%%%%%%%%%%%%%%%    @@@ ;;   @@@@@@@++++++++++   %%%%%%%%%",
"$$$$$%%%%%%%%%%%%%%%%%    @@@      @@@@@@@++++++++++ = %%%%%%%%%",
"$$$$$%%%%%%%%%$$$$%   OOOO@@@@@@@@@@@@@++++++OOO++=+OOO   %%%%%%",
"$$$$$%%%%%%%%%$$$$%   OOOO@@@@@@@@@@@@@++++++OOO++++OOO   %%%%%%",
"$$$$$%%%%%%%%%$$$$%   OOOO@@@@@@@@@@@@@++++++OOO+=+=OOO   %%%%%%",
"$$$$$%%%%%%%%%$$$$%   @@@@@@@@@@@@@@@@@+++++++++    +++   %%=%%%",
"$$$$$%%%%%%%%%$$$$%   @@@@@@@@@@@@@@@@@+++++++++o  o+++   %%%%%%",
"%%%%%%%%%%%%%%$$$$%   @@@@@@@@@@@@@@@@@+++++++++    +++   %%%%%%",
"%%%%%%%%%%%%%%$$$$%   @@@@@@@@@@@@@@@@@+++++++++    +++   %%%%%%",
"%%%%%%%%%%%%%%$$$$%   @@@@@@@@@@@@@@@@@+++++++++    +++   %%%%%%",
"%%%%%%%%%%%%%%$$$$%   @@@@@@@@@@@@@@@@@  +++++++    +++   %%%%%%",
"%%%%%%%%%%%%%      @@@@@@@@@@@@@@@@@@@@         ++++OOO   %%%%%%",
"%%%%%%%%%%%%%      @@@@@@@@@@@@@@@@@@@@+        ++++OOO   %$$$$$",
"%%%%%%%%%%%%%      @@@@@@@@@@@@@@@@@@@@+        ++++OOO   %$$$$$",
"%%%%%%%%%    OOO@@@@@@@@@@@@@@@@@@@@@@@@@@++++++++++   %%%%$$$$$",
"%.....%%%    OOO@@@@@@@@@@@@@@@@@@@@@@@@@@++++++++++   %%%%$$$$$",
"%.....XXX    OOO@@@@@@@@@@@@@@@@@@@@@@@@@@++++++++++   %%%%$$$$$",
"%.....   @@@@@@@@@@@@@@@@@@@@@@@@@@                 %%%%%%%$$$$$",
"%.....   @@@@@@@@@@@@@@@@@@@@@@@@@@                 %%%%%%%$$$$$",
"%.....   @@@@@@@@@@@@@@@@@@@@@@@@@@                 %%%%%=%$$$$$",
"%.....OOO@@@@@@@@@@@@@@@@@@@@@@@@@@    %%%%%%%%%%%%%%%%%%%%$$$$$",
"%%%   OOO@@@@@@@@@@@@@@@@@@@@@@@@@@    $$%%%%%%%%%XXXXX%%%%%%%%%",
"%%%   OOO@@@@@@@@@@@@@@@@@@@@@@@@@@    $$%%%%%%%%%XXXXX%%%%%%%%%",
"%%%   @@@@@@@@@@OOO@@@@@@@@@@@@@@@@    $$%%%%%%%%%XXXXX%%%%%%%%%",
"%%%   @@@@@@@@@@OOO@@@@@@@@@@@@@@@@    $$%%%%%%%%%XXXXX%%%%%%%%%",
"%%%   @@@@@@@@@@OOO@@@@@@@@@@@@@@@@    $$%%%%%%%%%XXXXX%%%%%%%%%",
"%%%   @@@@@@@@@@OOO@@@@@@@@@@@@@@@@    $$%%%%%%%%%XXXXX%%%%%%%%%",
"%%%   @@@@@@@@@@   @@@@@@@OOO@@@OOO    $$%%%%%%%%%XXXXX%%%%%%%%%",
"%%%   @@@@@@@@@@   @@@@@@@OOO@@@OOO    $$%%%%%%%%%XXXXX%%%%%%%%%",
"%%%   @@@@@@@@@@   @@@@@@@OOO@@@OOO    $$%%%%%%%%%X=XXX%%%%%%%%%",
"%%%   @@@@@@@@@@   +++++++   OOO   %%%%%%%%%%%%%%%%%%%%%%%%$$$$$",
"%%%   @@@@@@@@@@   +++++++   OOO   %%%%%%%%%%%%%%%%%%%%%%%%$$$$$",
"%%%   @@@@@@@@@@   +++++++   OOO   %%%%%%%%%%%%%%%%%%%%%%=%$$=$$",
"%%%   +++OOOO      +++++++   OOO   %%%%%%%%%%%%%%%%%%%%%%%%$$$$$",
"XXX   +++OOOO      +++++++   OOO   %%%%%%$$$$$XXXX$$$$$%%%%$$$$$",
"XXX   +++OOOO      +++++++   OOO   %%%%%%$$$$$XXXX$$$$$%%%%$$$$$",
"XXX   OOO+++++++   +++    +++   OOO    %%$$$$$XXXX$$$$$%%%%$$$$$",
"XXX   OOO+++++++   +++    +++   OOO    %%$$$$$XXXX$$$$$%%%%$$$$$",
"XXX   OOO+++++++   +++    +++   OOO    %%$$$$$XXXX=$$$$%%%%$$$$$"
};
