/* XPM */
static char *result[] = {
/* columns rows colors chars-per-pixel */
"64 64 49 1 ",
"  c #161716",
". c #181717",
"X c #181817",
"o c #15171C",
"O c #17191B",
"+ c #1B1B1D",
"@ c #1D1E21",
"# c #1F2023",
"$ c #212325",
"% c #23252A",
"& c #26292D",
"* c #292A2F",
"= c #272A30",
"- c #2A2D32",
"; c #332E35",
": c #2D3136",
"> c #2E3239",
", c #31353B",
"< c #3B323B",
"1 c #34383F",
"2 c #40363F",
"3 c #363A42",
"4 c #393E46",
"5 c #3B3F48",
"6 c #473B46",
"7 c #423F48",
"8 c #3C414A",
"9 c #46424D",
"0 c #414650",
"q c #4B4652",
"w c #434A54",
"e c #474E59",
"r c #554553",
"t c #574A58",
"y c #4B525D",
"u c #4E5562",
"i c #505764",
"p c #545D6A",
"a c #635162",
"s c #6B5A6D",
"d c #705E71",
"f c #7A5E74",
"g c #5B6573",
"h c #8B6A83",
"j c #93708B",
"k c #9E7793",
"l c #AB7F9F",
"z c #B686A8",
"x c None",
/* pixels */
"xxxxxxxxxxxxxxxxxxxxxxxxxxxxxxxxxxxxxxxxxxxxxxxxxxxxxxxxxxxxxxxx",
"xxxxxxxxxxxxxxxxxxxxxxxxxxxxxxxxxxxxxxxxxxxxxxxxxxxxxxxxxxxxxxxx",
"xxxxxxxxxxxxxxxxxxxxxxxxxxxxxxxxxxxxxxxxxxxxxxxxxxxxxxxxxxxxxxxx",
"xxxxxxxxxxxxxxxxxxxxxxxxxxxxxxxxxxxxxxxxxxxxxxxxxxxxxxxxxxxxxxxx",
"xxxxxxxxxxxxxxxxxxxxxxxxxxxxxxxxxxxxxxxxxxxxxxxxxxxxxxxxxxxxxxxx",
"xxxxxxxxxxxxxxxxxxxxxxxxxxxxxxxxxxxxxxxxxxxxxxxxxxxxxxxxxxxxxxxx",
"xxxxxxxxxxxxxxxxxxxxxxxxxxxxxxxxxxxxxxxxxxxxxxxxxxxxxxxxxxxxxxxx",
"xxxxxxxxxxxxxxxxxxxxxxxxxxxxxxxxxxxxxxxxxxxxxxxxxxxxxxxxxxxxxxxx",
"xxxxxxxxxxxxxxxxxxxxxxxxxxxxxxxxxxxxxxxxxxxxxxxxxxxxxxxxxxxxxxxx",
"xxxxxxxxxxxxxxxxxxxxxxxxxxxxxxxxxxxxxxxxxxxxxxxxxxxxxxxxxxxxxxxx",
"xxxxxxxxxxxxxxxxxxxxxxxxxxxxxxxxxxxxxxxxxxxxxxxxxxxxxxxxxxxxxxxx",
"xxxxxxxxxxxxxxxxxxxxxxxxxxxxxxxxxxxxxxxxxxxxxxxxxxxxxxxxxxxxxxxx",
"xxxxxxxxxxxxxxxxxxxxxxxxxxxxxxxxxxxxxxxxxxxxxxxxxxxxxxxxxxxxxxxx",
"xxxxxxxxxxxxxxxxxxxxxxxxxxxxxxxxxxxxxxxxxxxxxxxxxxxxxxxxxxxxxxxx",
"xxxxxxxxxxxxxxxxxxxxxxxxxxxxxxxxxxxxxxxxxxxxxxxxxxxxxxxxxxxxxxxx",
"xxxxxxxxxxxxxxxxxxxxxxxxxxxxxxxxxxxxxxxxxxxxxxxxxxxxxxxxxxxxxxxx",
"xxxxxxxxxxxxxxxxxxxxxxxxxxxxxxxxxxxxxxxxxxxxxxxxxxxxxxxxxxxxxxxx",
"xxxxxxxxxxxxxxxxxxxxxxxxxxxxxxxxxxxxxxxx+xxx+xxxxxxxxxxxxxxxxxxx",
"xxxxxxxxxxxxxxxxxxxxxxxxxxxxxxxxxxxxxxx@@@@@@@xxxxxxxxxxxxxxxxxx",
"xxxxxxxxxxxxxxxxxxxxxxxxxxxxxxxxxxxxxx%--::---%Xxxxxxxxxxxxxxxxx",
"xxxxxxxxxxxxxxxxxxxxxxxxxxxxxxxxxxxxx+&,313131:%xxxxxxxxxxxxxxxx",
"xxxxxxxxxxxxxxxxxxxx++xxxxxxxxxxxx+++x$--=*-,49w3#xxxxxxxxxxxxxx",
"xxxxxxxxxxxxxxxxxxx++#@xxxxxxxxxx#@++xx####$-4yp8@xxxxxxxxxxxxxx",
"xxxxxxxxxxxxxxxxxxx+#%&$xxxxxxxx#&%@+xxxxxxx%-5w,@xxxxxxxxxxxxxx",
"xxxxxxxxxxxxxxxxxxx+$2q;+xxxxxx+=97&+xxxxxxxx$:3-@xxxxxxxxxxxxxx",
"xxxxxxxxxxxxxxxxxxx+;fkr+ XXX++@6jh<.xxxxxxxx#-3-#xxxxxxxxxxxxxx",
"xxxxxxxxxxxxxxxxxxx+<hza%%==&###rzk2.xxxxxxx#%:1-+xxxxxxxxxxxxxx",
"xxxxxxxxxxxxxxxxxxx+*tdq38uue3>>9st-Xxxxxxx+&>>-%#xxxxxxxxxxxxxx",
"xxxxxxxxxxxxxxxxxxx+%,858iggp834881%+xxxxx#%-,>=$@xxxxxxxxxxxxxx",
"xxxxxxxxxxxxxxxxxxx+$:448weew84443,$@O++X+&>>>&#@xxxxxxxxxxxxxxx",
"xxxxxxxxxxxxxxxxxxx@$:448844884844,$@#%-=%->>=#@xxxxxxxxxxxxxxxx",
"xxxxxxxxxxxxxxxxxxx+$:484844844444>%$:8yw3>>=#@xxxxxxxxxxxxxxxxx",
"xxxxxxxxxxxxxxxxxxx@%:333=334>>>,3>$-8upu8>&$@xxxxxxxxxxxxxxxxxx",
"xxxxxxxxxxxxxxxxxxx@@:3%oo@-3#oO$11%,ipy84:$@xxxxxxxxxxxxxxxxxxx",
"xxxxxxxxxxxxxxxxxxxx#->%oo@3>#+O#-:%3ii844:#+xxxxxxxxxxxxxxxxxxx",
"xxxxxxxxxxxxxxxxxxxxx@$==33343>>-%#%>88843:#+xxxxxxxxxxxxxxxxxxx",
"xxxxxxxxxxxxxxxxxxxxx+@&>3:>:,::-##-,44443:#+xxxxxxxxxxxxxxxxxxx",
"xxxxxxxxxxxxxxxxxxxxx@@@@@@@#$$@#&-,444444:#+xxxxxxxxxxxxxxxxxxx",
"xxxxxxxxxxxxxxxxxxxxx@@@@@@#%$%#&>,33,>483:#+xxxxxxxxxxxxxxxxxxx",
"xxxxxxxxxxxxxxxxxxxxx@##%==>,1,3>344>%=344-#+xxxxxxxxxxxxxxxxxxx",
"xxxxxxxxxxxxxxxxxxxxx@#=>>>35544843>&+%184-@+xxxxxxxxxxxxxxxxxxx",
"xxxxxxxxxxxxxxxxxxxxx+$:3334444444>%++%184:$+xxxxxxxxxxxxxxxxxxx",
"xxxxxxxxxxxxxxxxxxxxx+$>43,>>>341>&++@&:14:++xxxxxxxxxxxxxxxxxxx",
"xxxxxxxxxxxxxxxxxxxxx+$>3>=##&>31%++@%%%*1:$+xxxxxxxxxxxxxxxxxxx",
"xxxxxxxxxxxxxxxxxxxxx@$,3-%++$*1>$XX@&%#*1:$+xxxxxxxxxxxxxxxxxxx",
"xxxxxxxxxxxxxxxxxxxxx@$-1&+xxX%,>$XX$%%#*1:#+xxxxxxxxxxxxxxxxxxx",
"xxxxxxxxxxxxxxxxxxxxx+%,1&+xxX$>,$XX+$$#*3>@+xxxxxxxxxxxxxxxxxxx",
"xxxxxxxxxxxxxxxxxxxxx@$-3&+xx+$>>$Xxx@#@*1:$+xxxxxxxxxxxxxxxxxxx",
"xxxxxxxxxxxxxxxxxxxxx@$,1%+xx+$>,#.xxx+@%-&@xxxxxxxxxxxxxxxxxxxx",
"xxxxxxxxxxxxxxxxxxxxx+$-1&+xx+$,>#.xxxx@@@@xxxxxxxxxxxxxxxxxxxxx",
"xxxxxxxxxxxxxxxxxxxxx+$,1*@xx+$,,$+xxxxx+xxxxxxxxxxxxxxxxxxxxxxx",
"xxxxxxxxxxxxxxxxxxxxx@$,,*+xx+%,,$+xxxxxxxxxxxxxxxxxxxxxxxxxxxxx",
"xxxxxxxxxxxxxxxxxxxxx+$%*%xxx@$&&$xxxxxxxxxxxxxxxxxxxxxxxxxxxxxx",
"xxxxxxxxxxxxxxxxxxxxx@+@@xxxx+@@+xxxxxxxxxxxxxxxxxxxxxxxxxxxxxxx",
"xxxxxxxxxxxxxxxxxxxxxxxxxxxxxxxxxxxxxxxxxxxxxxxxxxxxxxxxxxxxxxxx",
"xxxxxxxxxxxxxxxxxxxxxxxxxxxxxxxxxxxxxxxxxxxxxxxxxxxxxxxxxxxxxxxx",
"xxxxxxxxxxxxxxxxxxxxxxxxxxxxxxxxxxxxxxxxxxxxxxxxxxxxxxxxxxxxxxxx",
"xxxxxxxxxxxxxxxxxxxxxxxxxxxxxxxxxxxxxxxxxxxxxxxxxxxxxxxxxxxxxxxx",
"xxxxxxxxxxxxxxxxxxxxxxxxxxxxxxxxxxxxxxxxxxxxxxxxxxxxxxxxxxxxxxxx",
"xxxxxxxxxxxxxxxxxxxxxxxxxxxxxxxxxxxxxxxxxxxxxxxxxxxxxxxxxxxxxxxx",
"xxxxxxxxxxxxxxxxxxxxxxxxxxxxxxxxxxxxxxxxxxxxxxxxxxxxxxxxxxxxxxxx",
"xxxxxxxxxxxxxxxxxxxxxxxxxxxxxxxxxxxxxxxxxxxxxxxxxxxxxxxxxxxxxxxx",
"xxxxxxxxxxxxxxxxxxxxxxxxxxxxxxxxxxxxxxxxxxxxxxxxxxxxxxxxxxxxxxxx",
"xxxxxxxxxxxxxxxxxxxxxxxxxxxxxxxxxxxxxxxxxxxxxxxxxxxxxxxxxxxxxxxx"
};
