/* XPM */
static char *_7262557be2d4f73d39bc1af73225122FmTMszXSBEFauO4R[] = {
/* columns rows colors chars-per-pixel */
"64 64 96 2 ",
"   c None",
".  c #141516",
"X  c #171719",
"o  c #17181A",
"O  c #1A1B1D",
"+  c #1D1E21",
"@  c #1F2023",
"#  c #1F232B",
"$  c #222326",
"%  c #242629",
"&  c #282529",
"*  c #26292D",
"=  c #292B2F",
"-  c #37352C",
";  c #272B31",
":  c #2A2D32",
">  c #342E35",
",  c #2D3137",
"<  c #2E3239",
"1  c #353737",
"2  c #32353C",
"3  c #3B323B",
"4  c #34383E",
"5  c #3B3C3E",
"6  c #434139",
"7  c #3A3740",
"8  c #363A42",
"9  c #393D45",
"0  c #3B3F48",
"q  c #413740",
"w  c #4B3E49",
"e  c #3D4046",
"r  c #3D434C",
"t  c #41444D",
"y  c #4B444F",
"u  c #494B49",
"i  c #575344",
"p  c #57544A",
"a  c #5E5A4C",
"s  c #474651",
"d  c #4E4753",
"f  c #454B54",
"g  c #4A4E55",
"h  c #474D58",
"j  c #484F5A",
"k  c #5A4957",
"l  c #5D4C5B",
"z  c #4E5257",
"x  c #4B525E",
"c  c #52575D",
"v  c #56595D",
"b  c #605D51",
"n  c #636056",
"m  c #646158",
"M  c #6E6B5E",
"N  c #4E5561",
"B  c #515966",
"V  c #595D62",
"C  c #565E6D",
"Z  c #625061",
"A  c #6E576A",
"S  c #6D5A6D",
"D  c #745E72",
"F  c #57606E",
"G  c #62656A",
"H  c #6E706F",
"J  c #6D6F74",
"K  c #6D7075",
"L  c #727475",
"P  c #727579",
"I  c #817247",
"U  c #887B54",
"Y  c #80647A",
"T  c #85657C",
"R  c #86677F",
"E  c #8F8053",
"W  c #93855D",
"Q  c #B0A27B",
"!  c #B3A47B",
"~  c #B3A57E",
"^  c #B7A87E",
"/  c #906C86",
"(  c #9D7692",
")  c #A37A98",
"_  c #919395",
"`  c #96989B",
"'  c #9C9B99",
"]  c #9B9C9B",
"[  c #989B9F",
"{  c #A1A09C",
"}  c #AFAFAE",
"|  c #BDB9AC",
" . c #ADAFB3",
".. c #C4C0B2",
"X. c #CDC8BB",
"o. c #D4CFC0",
/* pixels */
"                                                                                                                                ",
"                                                                                                                                ",
"                                                                                                                                ",
"                                                                                                                                ",
"                                                                                                                                ",
"                                                                                                                                ",
"                                                                                                                                ",
"                                                                                                                                ",
"                                                                                                                                ",
"                                                                                                                                ",
"                                                                                                                                ",
"                                                                                                                                ",
"                                                                                                                                ",
"                                                                                                                                ",
"                                                                                                                                ",
"                                                                                                                                ",
"                                                                          O + O + O O o                                         ",
"                                                                        $ * : : ; ; % @ O                                       ",
"                                                                      + % 2 8 2 2 2 < ; # O                                     ",
"                                                                    o + % * : : : < 8 r 8 @ +                                   ",
"                                      X O O O                     O + + + $ @ $ % ; 0 N r ; + X                                 ",
"                                      O + $ # @                 @ % # + O O       @ 2 0 8 , * +                                 ",
"                                      $ & 3 9 = X             + = 9 5 $ X           + * , 2 * O                                 ",
"                                      $ 3 A T y O . . . X X O & w Y D > .           + $ ; 8 : O                                 ",
"                                      & q T ) l $ + % % % @ $ : k ) / 3 .             $ : 8 ; +                                 ",
"                                      $ 1 l D d 8 r h h r 8 , 1 y A Z = .             $ ; 2 ; +                                 ",
"                                      + % 7 s t r N F C N r 8 7 9 t 7 $ O           + % : 2 ; +                                 ",
"                                      + % 2 9 9 0 h j j f r 9 8 7 9 2 $ O O X X X + % , < , $ +                                 ",
"                                      + % 2 r f g r 8 0 0 8 9 f f e , $ O $ $ * % % ; < , ; @ O                                 ",
"                                      O % 2 g J L 0 # , 8 ; 9 J P f , $ % , 9 f r 8 , , % + +                                   ",
"                                      + % 5 V _ ] m - 1 8 6 b ] ` c , % : r x N N 8 , ; $ +                                     ",
"                                      O % 7 G } o.~ I i p U ~ X. .V , * 2 N B j r 8 : @ +                                       ",
"                                        % 1 v ] ..! E a a W ^ | [ z * * 8 B N r r 8 ; + o                                       ",
"                                          % 5 v L M a u u b M H V 2 # * < r f r 8 8 ; +                                         ",
"                                          O $ 1 t 5 5 1 4 5 9 5 2 $ $ , < r e 8 e 8 ; +                                         ",
"                                          O $ $ $ & & $ $ $ $ % * * , < 8 8 r e 8 8 : +                                         ",
"                                          O + O + + + & $ % $ $ * : < 8 8 4 8 8 e 8 ; +                                         ",
"                                          O @ $ % % = , 2 2 2 2 2 8 8 8 < ; : 8 8 8 : +                                         ",
"                                          + @ * , , 1 4 0 8 8 8 8 8 4 1 * $ * 8 0 8 : +                                         ",
"                                          + # , 8 4 8 8 8 0 e 9 e 8 < % + @ * 8 9 8 : +                                         ",
"                                          + % 2 8 8 < < < 8 8 8 8 < * @ + + * < 8 8 * +                                         ",
"                                          + $ , 8 < ; % % : < 8 < * O O + % % * : 8 : +                                         ",
"                                          + % 2 8 ; % O + % ; 2 1 @ O O + * % % : < : +                                         ",
"                                          O $ , 2 * O     + % 2 , @ X O + % % $ ; 8 : +                                         ",
"                                          + $ 2 2 % o     O $ < , + . X O $ $ $ : 8 : +                                         ",
"                                          + $ 2 2 % O     O % , , + .     + $ $ * 2 : +                                         ",
"                                          + $ , 2 % O     O $ 1 , @ .     O O + % ; % +                                         ",
"                                          + $ , 2 % O     O $ , < + .       X + + + +                                           ",
"                                          + % , 2 % O     O * 2 < $ .           O                                               ",
"                                          + % < 2 % O     @ % 2 , + O                                                           ",
"                                          O $ % * $       + $ * * +                                                             ",
"                                          O + + +         O + + +                                                               ",
"                                                                                                                                ",
"                                                                                                                                ",
"                                                                                                                                ",
"                                                                                                                                ",
"                                                                                                                                ",
"                                                                                                                                ",
"                                                                                                                                ",
"                                                                                                                                ",
"                                                                                                                                ",
"                                                                                                                                ",
"                                                                                                                                ",
"                                                                                                                                "
};
