/* XPM */
static char *_e756f764bd34abca41076db5d9a2ec5DFvBVHBrbGVTU0JC[] = {
/* columns rows colors chars-per-pixel */
"64 64 94 2 ",
"   c None",
".  c #161616",
"X  c #161719",
"o  c #17181A",
"O  c #1A1B1D",
"+  c #1D1E21",
"@  c #1F2123",
"#  c #212326",
"$  c #232529",
"%  c #26292D",
"&  c #2A2C2D",
"*  c #33322D",
"=  c #252931",
"-  c #2A2D32",
";  c #332D34",
":  c #2D3036",
">  c #2F3339",
",  c #323337",
"<  c #31353C",
"1  c #3A343D",
"2  c #34383F",
"3  c #3D3E3F",
"4  c #49463E",
"5  c #655B3D",
"6  c #3F3640",
"7  c #363A42",
"8  c #393D45",
"9  c #3B3F48",
"0  c #443B45",
"q  c #3D424B",
"w  c #444542",
"e  c #4C4B43",
"r  c #42454D",
"t  c #4E4E48",
"y  c #5A5646",
"u  c #53524C",
"i  c #414751",
"p  c #484551",
"a  c #444A53",
"s  c #494D53",
"d  c #474E59",
"f  c #494F5A",
"g  c #534452",
"h  c #534A57",
"j  c #564F5D",
"k  c #5B4C5B",
"l  c #4C525D",
"z  c #555656",
"x  c #525558",
"c  c #605C4B",
"v  c #7B6D43",
"b  c #786C49",
"n  c #716950",
"m  c #7D755C",
"M  c #4D5460",
"N  c #505764",
"B  c #5B5261",
"V  c #525966",
"C  c #535B68",
"Z  c #695365",
"A  c #745A6E",
"S  c #755E72",
"D  c #5E6269",
"F  c #6A6862",
"G  c #62656B",
"H  c #6A6E75",
"J  c #796277",
"K  c #73757A",
"L  c #83677E",
"P  c #938252",
"I  c #94855C",
"U  c #868170",
"Y  c #A99868",
"T  c #7A7D82",
"R  c #866B83",
"E  c #95718C",
"W  c #9B7591",
"Q  c #8B8A83",
"!  c #82858A",
"~  c #8E8D8B",
"^  c #898A8C",
"/  c #8F9298",
"(  c #AB809F",
")  c #AFA485",
"_  c #BCB08C",
"`  c #9A9DA3",
"'  c #9C9EA1",
"]  c #A2A3A3",
"[  c #B5B7BA",
"{  c #C9C3B2",
"}  c #CAC4B1",
"|  c #C0C1C4",
" . c #CAC9C5",
".. c #D1D0CB",
/* pixels */
"                                                                                                                                ",
"                                                                                                                                ",
"                                                                                                                                ",
"                                                                                                                                ",
"                                                                                                                                ",
"                                                                                                                                ",
"                                                                                                                                ",
"                                                                                                                                ",
"                                                                                                                                ",
"                                                                                                                                ",
"                                                                                                                                ",
"                                                                                                                                ",
"                                                                                                                                ",
"                                                                                                                                ",
"                                                                                                                                ",
"                                                                                                                                ",
"                                                                                                                                ",
"                                                                                                                                ",
"                                o o O                     O O o o                                                               ",
"                                O @ $ @                 O @ @ @ O                                                               ",
"                                + ; 9 - o             . # 1 1 $ O                                     O O O O O                 ",
"                                $ k L g + .         . . ; A S 1 O                                   $ - = - - = #               ",
"                                $ A ( Z # + @ # @ @ O O 0 E W 0 O                     O O + + + O + = > < < < : # .             ",
"                                $ k R k : 7 q i q > - % 6 J J 1 O                   @ - - - = - - - - - - & - & @               ",
"                                # 0 B p q q C C l q 2 2 q x h ; O                 + = > 7 : > > < : - $ # # $ $                 ",
"                                # ; r 9 q q l l l q q 2 q q 8 $ O X             @ - - > > - - - - - $ O   O O                   ",
"                                @ - 9 r s q q 4 q q 2 q d q 2 % O O @ $ # + O + $ > > - $ @ $ $ $ # +                           ",
"                                @ - r G K a % * q = > D K x < @ @ % < q q < - - > > - $ @ +     O                               ",
"                                @ % r ! ] F * * 2 & 4 ~ ' D < @ $ < i l f 8 > > : - = @ O                                       ",
"                              O @ % a ` ..) L 4 q 5 I } | H 2 @ - d M l a q < - $ $ @ O                                         ",
"                                + $ r /  ._ P y e v Y } [ D : @ - M C d q 9 < % # + O                                           ",
"                                  + - G ^ U n t q c m Q T r % @ : i d q q q > $ O X                                             ",
"                                  o # 3 x u e 3 2 4 u z d : @ $ > q q q 9 8 > @ O                                               ",
"                                  O @ % : : & - % % * : : $ % : 7 9 9 q 8 8 > @ O                                               ",
"                                  O O @ @ @ @ % $ $ % @ $ % : 2 7 < 2 7 q 7 > # +                                               ",
"                                  O + @ $ $ @ = : : : : : < 2 7 7 = - 7 q q > # O                                               ",
"                                  @ @ % = = : < 2 2 2 2 2 7 7 2 : # % 2 8 8 : @ O                                               ",
"                                  O @ % > 2 7 7 q 7 7 q 7 q 7 : @ O # 2 q 8 < @ O                                               ",
"                                  O @ : 7 7 2 < < 2 3 7 7 2 , $ O O @ : 2 q > @ +                                               ",
"                                  O O : 7 < : % % - > 7 3 & # O O # $ % : 7 > $ O                                               ",
"                                  O @ : 7 > % @ @ # - 1 7 % O o O % % @ % 7 < # O                                               ",
"                                  O @ : 7 : @ O   O $ < 2 @ o o O % % @ % 7 < # O                                               ",
"                                  O # : 7 - @     . @ , 2 @ o . O @ @ @ $ 7 < # O                                               ",
"                                  O # : 7 & @     . @ < 2 @ o     @ @ @ % 7 : # O                                               ",
"                                  O @ : 7 - O     . O , 2 # o     O + + # : - @                                                 ",
"                                  O @ : 7 & @     . # < 1 # o         O # $ #                                                   ",
"                                  O @ : 7 - @     O @ < 1 $ O         O O +                                                     ",
"                                  O @ : 7 % +     O # : < % O                                                                   ",
"                                  + @ % - % O     + # & - #                                                                     ",
"                                    O $ # @       O # # $                                                                       ",
"                                    o O O           o O O                                                                       ",
"                                                                                                                                ",
"                                                                                                                                ",
"                                                                                                                                ",
"                                                                                                                                ",
"                                                                                                                                ",
"                                                                                                                                ",
"                                                                                                                                ",
"                                                                                                                                ",
"                                                                                                                                ",
"                                                                                                                                ",
"                                                                                                                                ",
"                                                                                                                                ",
"                                                                                                                                "
};
