/* XPM */
static char *b87cf3fd984749a88dc03e4883fc897coQEOHkZcv1zY8Ikc[] = {
/* columns rows colors chars-per-pixel */
"64 64 9 1 ",
"  c #4F7A36",
". c #ED7614",
"X c #589137",
"o c #65AB3F",
"O c #B28604",
"+ c #FF9800",
"@ c #FFC107",
"# c #FFEB3B",
"$ c #F9E6CF",
/* pixels */
" Xoooooooo ooooXXoXoXooXooXXoooo oooooo oXooooooooo oooooo oXoXo",
"oXooXoooooooXXoXooooooooooXooXoooooX XoooooXoXooXoooooX XoooooXo",
"ooooXo oXo oXXoooooooooooooooXooXooX XoooooXoXoXXooXooX Xooooooo",
"XoooooX Xoooooooo o o oo ooo oooXooooooXo$oooooXoooXooooooX$ooo ",
"$ooXoooooX Xooooo o o o ooXooooooooXoooXooXoXooo$oooooXoooXooXo ",
"oooX Xoo o$XoooooX Xoo ooXo oo ooX XooooooXXXo$oo ooX XooooooXoo",
"oXoooXoooooX XooooooooooXooooo ooXoooXoo ooXooo$$ ooXo$oXoo oo X",
"oXo oooooXoooXooXoooooooXoooXooXoooooXoo ooooX XooXoooooXoo oooX",
"ooo oooooXo ooooXo oXo ooOOOOOOOOOOOOOOOOoXoooooooXooo ooooooXoX",
"XoooooX ooo oooooo oXooo OOOOOOOOOOOOOOOOoXoX$oo ooooo ooX XoXoo",
"XooXooX Xooooo$ $ooooooXoOOOOOOOOOOOOOOOOoooXo oXoooo ooX XoX oX",
"oooXooooXooXoo$ $ooooooXoOOOOOOOOOOOOOOOOooooo oXo ooooooXooo oX",
"ooooooXooooXo$$o$$OOOOOOO++++++++++++++++OOOOOOOoo ooX XoXoXoooo",
"o oo$ XoooooooXoooOOOOOOO++++++++++++++++OOOOOOOoooX ooXoooooX X",
"o ooXoooo ooX$$o$$$OOOOOO++++++++++++++++OOOOOOOoooooooX Xoooooo",
"ooXoooooo ooXo$O$O###@@@@@@@@@@@@@@@@@@@@+++++++OOOooXoooXooXo$o",
"ooXooo oooXooo$O$O###@@@@@@@@@@@@@@@@@@@@+++++++OOOXoXo ooooXo o",
"ooX XoooooXooo OOO###@@@@@@@@@@@@@@@@@@@@+++++++OOOXoooooX $oo o",
"ooooooo$ ooOOOO###@@@@@@@@@@@@@@@@@@@@@@@@@@@@@@+++OOOOoooooooXo",
"oXoooooooXoOOOO###@@@@....@....@....@...@@@@@@@@+++OOOOoXoooo$oo",
"oXo oXoooXoOOOO###@@@@.@@@@.@@.@.@@.@@.@@@@@@@@@+++OOOOoXo oXooo",
"ooo oXoooX OOOO###@@@@.@@@@.@@.@.@@.@@.@@@@@@@@@+++OOOOooo oXooo",
" XoooooooXoOOOO@@@@@@@.@@@@....@....@@.@@@@@@@@@+++OOOO Xooooooo",
"oXoooooX XoOOOO@@@@@@@.@@@@.@@.@.@@@@@.@@@@@@@@@+++OOOO Xooooooo",
"oX XoooooooOOOO@@@@@@@.@@@@.@@.@.@@@@@.@@@@@@@@@+++OOOOoooXooooo",
"oooXooXoOOO@@@@@@@@@@@....@.@@.@.@@@@...@@@@@@@@@@@++++OOOXooXoo",
"o ooooXoOOO@@@@@@@@@@@@@@@@@@@@@@@@@@@@@@@@@@@@@@@@++++OOOoooXoo",
"o ooooooOOO@@@@@@@@@@@@@@@@@@@@@@@@@@@@@@@@@@@@@@@@++++OOOo oooo",
"ooooX XoOOO@@@@@@@@@@@@@@@@@@@@@@@@@@@@@@@@@@@@@@@@++++OOOo oooo",
"oXooX XoOOO@@@@@@@@@@@@@@@@@@@@@@@@@@@@@@@@@@@@@@@@++++OOOoooX X",
"oXooooooOOO@@@@@@@@@@@@@@@@@@@@@@@@@@@@@@@@@@@@@@@@++++OOO XoXXo",
"ooooXoooOOO@@@@@@@@@.....@@.....@.....@..@@@@.@@@@@++++OOOoooooo",
"ooX XoooOOO####@@@@@.@@@@@@.@@@.@@@.@@@..@@@@.@@@@@++++OOOooX Xo",
"ooXoooXoOOO####@@@@@.@@@@@@.@@@.@@@.@@@...@@@.@@@@@++++OOOooX Xo",
"XoooooXoOOO####@@@@@.@@@@@@.@@@.@@@.@@@.@..@@.@@@@@++++OOOoooooo",
"Xooo oooOOO####@@@@@.@@@@@@.@@@.@@@.@@@.@@.@@.@@@@@++++OOOooX Xo",
"oooo oo$OOO####@@@@@.@@@@@@.@@@.@@@.@@@.@@..@.@@@@@++++OOOoooooo",
"ooooooo$O$O####@@@@@.@@@@@@.@@@.@@@.@@@.@@@.@.@@@@@++++OOOo$oooo",
"ooXoooo$O$O####@@@@@.@@@@@@.@@@.@@@.@@@.@@@@..@@@@@++++OOOoXo oX",
"ooXo o$$o$$$OOO@@@@@.@@@@@@.@@@.@@@.@@@.@@@@@.@@+++OOOOXoooooX X",
"oooo $$oooo$$OO@@@@@.....@@.....@.....@.@@@@@.@@+++OOOOooX Xoooo",
"X XoooooXooOOOO@@@@@@@@@@@@@@@@@@@@@@@@@@@@@@@@@+++OOOOooooooo X",
"X Xoo$$$ooXOOOO@@@@@@@@@@@@@@@@@@@@@@@@@@@@@@@@@+++OOOOoXooooooo",
"ooooXoo$o$$$OOO+++@@@@@@@@@@@@@@@@@@@@@@@@@@@@@@++$OOOOoXo oXo X",
"XoooXoo$o$oOOOO+++@@@@@@@@@@@@@@@@@@@@@@@@@@@@@@++$O$OOooo oXo X",
"Xoooooo$ooXOOOO+++@@@@@@@@@@@@@@@@@@@@@@@@@@@@@@+$$O$$$ Xooooo X",
"ooXoo o$oooooooOOO+++++++@@@@@@@@@@@@@@@@+++++++$$OXooX Xooooooo",
"ooXoo ooooX X o$OO+++++++@@@@@@@@@@@@@@@@+++++++OOOXooooooXooo X",
" ooooooXoooooooOOO+++++++@@@@@@@@@@@@@@@@+++++++O$$o$$XoooXooXoo",
" ooX XoXo ooXooOOO+++++++@@@@@@@@@@@@@@@@+++++++$$$o$ XooooooX X",
"o ooX ooXoooX XoXoOOOOOOO++++++++++++++++OOOOOOOo $o$oooXoo oooo",
"oooo$ooo$oXoooXoXoOOOOOOO++++++++++++++++OOOOOOOoo$oooooXoo oo X",
"XoXoooXoooXo oooooOOOOOOO++++++++++++++++OOOOOOOooXooo ooooooX X",
"XoXo oXo ooo ooXoooooX XoOOOOOOOOOOOOOOOOooooooo ooooo ooX XoXoo",
"oooo ooo Xoooo$XooXooX XoOOOOOOOOOOOOOOOOo ooXo oooooXoooXooXooo",
"oXoooXoooXooXoooooXooooooOOOOOOOOOOOOOOOOo ooXo ooo oXo oooo$o o",
"oXooXXooXoooXooooooooXoooOOOOOOOOOOOOOOOOooXooooXoo ooo oooooo o",
"ooooXoooXooooooo ooX XooooooXXoooooooooXoooXoo$oXoooX$ooooX Xooo",
"oooo$ooooo ooX o ooXoo$Xoo ooXXooooooo$Xo oooo oooooXooXooX Xooo",
" o ooo ooo ooXoooXoooooXoo oooXoXo  o ooooo ooX Xo ooooXooooooXo",
" o ooo ooooXoooooXooo ooooooXoXoXoXoooXooXoXooXooXooooooooXoooXo",
"oooXoooX$ooXooo ooooo ooX XoX ooX XooooooXoXooXooX oo ooX Xooooo",
"oooXoooXo ooooo ooooXoooooXoo ooXoooXoo oooo$oo oo oo ooXoooXoo ",
"o ooo ooooo ooX XoooXooo ooooooXooooXoo oooo oo ooooooXoooooXoo "
};
