/* XPM */
static char *_5975674c2cd48ddbc7b516bc5109c8dBjAmAdfRIYMbm310[] = {
/* columns rows colors chars-per-pixel */
"64 64 223 2 ",
"   c None",
".  c #150102",
"X  c #1B0102",
"o  c #1B040B",
"O  c #150511",
"+  c #1C0511",
"@  c #1D0A1C",
"#  c #240102",
"$  c #2B0202",
"%  c #25040E",
"&  c #2B050D",
"*  c #330203",
"=  c #3B0303",
"-  c #34050D",
";  c #3A070C",
":  c #3E080D",
">  c #220613",
",  c #260714",
"<  c #340611",
"1  c #3A0815",
"2  c #370813",
"3  c #440303",
"4  c #4C0404",
"5  c #4A0709",
"6  c #540504",
"7  c #5B0504",
"8  c #5C0907",
"9  c #52090B",
"0  c #5C0908",
"q  c #540708",
"w  c #460C13",
"e  c #540E14",
"r  c #4A1017",
"t  c #5E1113",
"y  c #56151A",
"u  c #620605",
"i  c #690705",
"p  c #630806",
"a  c #6A0906",
"s  c #630B09",
"d  c #6C0C0A",
"f  c #720906",
"g  c #720C09",
"h  c #7B0C0A",
"j  c #79110D",
"k  c #6A1414",
"l  c #681819",
"z  c #741412",
"x  c #7B1512",
"c  c #741B1A",
"v  c #7C1D1A",
"b  c #761916",
"n  c #621010",
"m  c #7E211D",
"M  c #531A22",
"N  c #793132",
"B  c #6E272A",
"V  c #552934",
"C  c #7A4D54",
"Z  c #735D6C",
"A  c #675163",
"S  c #77606F",
"D  c #820E0B",
"F  c #84110E",
"G  c #89110E",
"H  c #8C1512",
"J  c #8A1E19",
"K  c #861915",
"L  c #921A15",
"P  c #961E1A",
"I  c #9A1F1A",
"U  c #89211D",
"Y  c #9C221D",
"T  c #94231E",
"R  c #852520",
"E  c #8E2B26",
"W  c #8A2824",
"Q  c #932923",
"!  c #992924",
"~  c #9A322C",
"^  c #93322C",
"/  c #9B3730",
"(  c #9B3B35",
")  c #8A3531",
"_  c #A32A24",
"`  c #A52924",
"'  c #AA332C",
"]  c #A5322C",
"[  c #AD3730",
"{  c #A33C34",
"}  c #AD3B34",
"|  c #A63E38",
" . c #B13C35",
".. c #B23C36",
"X. c #8C403F",
"o. c #A3423A",
"O. c #AA443D",
"+. c #B3433C",
"@. c #B8453E",
"#. c #9A4D49",
"$. c #8C4F51",
"%. c #AD4C43",
"&. c #A64A42",
"*. c #B44C45",
"=. c #B94C44",
"-. c #B4554C",
";. c #BB534B",
":. c #B7544B",
">. c #BA5C53",
",. c #B85A52",
"<. c #A95049",
"1. c #B9645B",
"2. c #87626B",
"3. c #886A75",
"4. c #8E737E",
"5. c #99757D",
"6. c #966C72",
"7. c #A76866",
"8. c #AA7473",
"9. c #C1584F",
"0. c #C35D54",
"q. c #C3645B",
"w. c #C4645A",
"e. c #C46B62",
"r. c #C96E66",
"t. c #CC7166",
"y. c #CB746B",
"u. c #C9766C",
"i. c #D1786D",
"p. c #CB7C75",
"a. c #D17E73",
"s. c #C9827A",
"d. c #D48176",
"f. c #D38479",
"g. c #D7897D",
"h. c #8B7782",
"j. c #947B83",
"k. c #9A7D85",
"l. c #A27D83",
"z. c #99898A",
"x. c #9A8A92",
"c. c #9B949A",
"v. c #878686",
"b. c #A6858B",
"n. c #B3898B",
"m. c #A68C92",
"M. c #AB8D92",
"N. c #B38E91",
"B. c #A89598",
"V. c #B7999C",
"C. c #B89696",
"Z. c #BC908E",
"A. c #BBA29C",
"S. c #9F97A1",
"D. c #A59BA4",
"F. c #B89EA2",
"G. c #AAA4A5",
"H. c #A9A1A5",
"J. c #B1A4A4",
"K. c #B7A7AA",
"L. c #B7ACB2",
"P. c #C98985",
"I. c #D98D83",
"U. c #D58C85",
"Y. c #CC918D",
"T. c #DB9285",
"R. c #DC968A",
"E. c #D9968B",
"W. c #C19897",
"Q. c #C29C9C",
"!. c #CB9D9B",
"~. c #C69696",
"^. c #DB9D93",
"/. c #D59C97",
"(. c #E19E92",
"). c #CDA19E",
"_. c #DCA69D",
"`. c #D8A39B",
"'. c #E3A296",
"]. c #E3A59A",
"[. c #E5A99D",
"{. c #E9AB9D",
"}. c #C3ABAB",
"|. c #CAAAAA",
" X c #C8A7A4",
".X c #D5ACA7",
"XX c #DCABA4",
"oX c #D6ABA6",
"OX c #DCB3AD",
"+X c #D4B3AE",
"@X c #C6BBBB",
"#X c #C8B7B8",
"$X c #D8BBB7",
"%X c #C8B0AF",
"&X c #E5ACA2",
"*X c #E9AEA3",
"=X c #EBB2A5",
"-X c #E3B4AB",
";X c #EAB5AB",
":X c #EAB8AC",
">X c #EDBDB3",
",X c #E3BDB6",
"<X c #F1BEB2",
"1X c #D5C0BD",
"2X c #ECC4BC",
"3X c #E9C2BA",
"4X c #F2C7BE",
"5X c #CEC3C2",
"6X c #D3C4C4",
"7X c #DCCBCA",
"8X c #DBC5C3",
"9X c #DBD1CD",
"0X c #EDCAC3",
"qX c #E3CDCB",
"wX c #E9CEC9",
"eX c #E3C8C4",
"rX c #F3CCC4",
"tX c #E9D1CC",
"yX c #F5D5CE",
"uX c #E9D8D4",
"iX c #F4DAD5",
"pX c #F5DAD5",
"aX c #F2E1DD",
/* pixels */
"                                                                                                                                ",
"                                                                                                                                ",
"                                                                                                                                ",
"                                                                                                                                ",
"                                                                                                                                ",
"                                                                                                                                ",
"                                                                                                                                ",
"                                                                                                                                ",
"                                                                                                                                ",
"                                                                                                                                ",
"                                                                                                                                ",
"                                                                                                                                ",
"                                    B.                                                                                          ",
"                                  B.K.%X}.                                                                                      ",
"                                B.J.#X1X1X                                                                                      ",
"                              z.A.%X1X6X1X                                                                                      ",
"                            B.A.%X1X1X9X1X                                                                                      ",
"                          A..X+X1X3X9X9X5XL.                                                                                    ",
"                        A..X1X3X3XtX9X9X5XL.                                                                                    ",
"                      B.).OX3X3X4X9XtX9X@XG.                                                                                    ",
"                    J.}.+X-X<X2X2X0XeX8X#XB.                                                                                    ",
"                  1X1X1X3X>X:X<X>X3X$X$X}.b.                                                                                    ",
"                L.9XtXwX2X3X=X=X;X-XOX+XQ.l.A                                                                                   ",
"              J.1XtXaXyX4X3X=X{.&X&XXXoXZ.5.$.V                                           @ @                                   ",
"            K.1X7XuXaXyXrX<X=X{.[.[._.`.Z.7.$.N M r r                                 @ > > + + +                               ",
"          @X5X9X9XiXpXyX4X<X=X{.[.[.`.E.s.7.X.N B t t t 9                           > % % % o % o o                             ",
"        5X9XuXuXiXpXyXrX4X<X=X*X{.[._.T.s.1.#.) m c c k t e                       @ % % # # # o o . o                           ",
"      K.6XuXaXaXaXyXyX4X2X:X=X&X[.[.(.g.s.1.<.o.) U m l l t y w                 > > & & $ # # # X X X                           ",
"    v.K.1XuXuXiXtXrX0X,X,X-X&X&X[.'.(.g.f.e.-.o.o.W U c b l t e w :       & & , , & & $ $ $ $ # X X X                           ",
"v.v.c.G.1X5X7X7X3X1X$X+XOXoXXXXX_.].'.R.g.u.1.O.o.^ E U v l l n 9 9 5 3 = ; * & & & * * * * $ # X X .                           ",
"c.c.c.G.L.%X@X#X#X|.|. X X XQ.).`._.].(.g.d.e.>.O.o.o.W R v z d s 0 6 6 4 3 = - * * = = = = * # X X .                           ",
"G.G.G.G.G.J.A.A.A.F.V.V.C.C.C.Q.).`.[._.(.g.u.w.1.O.o.X.E U K j f i 7 7 4 4 3 = = = = 3 3 = * $ X X X                           ",
"G.G.G.D.B.m.m.M.m.m.m.m.b.b.M.M.F./.`._.(.U.f.t.e.,.<.| ~ W J F h f i u q 6 4 3 3 3 3 4 3 3 * $ # X X                           ",
"        c.x.k.j.j.j.j.j.h.h.j.k.n.Q./.`./.R.U.f.y.q.,.%.| ~ T H D h f i u 7 7 6 6 4 4 4 4 3 = * # X X                           ",
"                          Z S h.k.n.W.!./.^.R.U.f.y.q.,.%.[ ` P H D h f i i u 7 7 7 6 6 6 3 = * # # X                           ",
"                              A 3.k.N.~.!.`./.(.R.f.y.q.;.O.' ` P H D h f f f f a i u 7 6 4 = * $ # # X                         ",
"                                A h.l.N.Q.oX_.&X(.R.f.t.0.9...' ` P H G D h h h g f a p 7 4 3 = * $ $ #                         ",
"                                  S h.b.Q.|.-X;X=X'.R.a.i.0.=.@.' ! Y L G G G G F h g a 7 7 4 3 = * $ $ #                       ",
"                                    Z h.M.|.,X2X<X=X(.R.d.t.0.9.*.' ` I L L L L H H D g i u 6 4 3 = * $ $ #                     ",
"                                      S k.|.,XrX4X<X=X(.T.d.t.0.;...[ ` Y I I I P L K h f i u 6 6 4 3 = * $ $                   ",
"                                      A j.K.eXwXrXrX<X&X(.U.d.t.0.;...' ` ` ` ` Y I L G h f i i 7 6 5 3 = * $ #                 ",
"                                        h.L.6XwXwX0X2X;X*X(.I.i.r.9.=...' ` ` ` ` Y I G D f f i s 8 q 6 4 3 = * #               ",
"                                        h.D.5X7XqXwX0X2X;X].R.d.t.0.=...[ ' ' [ ` ` I H D D h g d d s 0 6 6 3 = * #             ",
"                                          D.#X6XqXqX0XrX<X*X(.d.i.w.9.@...[ [ [ ' ` I L G D D x x b z d s 8 6 3 * $ X           ",
"                                          S.L.@X6X7XqXwX2X;X(.I.i.w.9.=.........[ ' ! L H G H K J K x x g d 7 4 = $ $ X         ",
"                                            S.L.@X6X7XqX2X;X'.I.i.t.9.=.=.......[ ' _ P L L J Q W W U K h d p 6 3 * $ # X       ",
"                                              S.L.#X6X8X8XXX/.U.a.t.0.9.@.......[ [ ~ ! P Q Q ! ~ ~ Q J D f u 6 3 = * # # X . . ",
"                                                S.L.#X#X$XoX/.U.a.t.0.9.=.........[ ] ~ ~ ~ / { | ( ~ U x f u 6 6 3 = * # X . . ",
"                                                  S.L.L.|.|./.U.f.y.e.>.*.=.+.+.+.O.o.o.o.o.o.O.%.| ] W x d p 7 6 4 3 * $ X X . ",
"                                                    D.J.F.Q.~.Y.P.p.r.1.>.>.:.:.@.O.O.o.o.O.<.@.*.O./ W x d u u 7 6 4 = $ # X . ",
"                                                      S.D.C.~.~.Y.P.p.p.y.y.e.w.e.w.>.>.,.-.:.:.*.O./ R z p 7 7 7 7 4 3 * # X . ",
"                                                        x.M.V.Q.!.!./.E.U.U.g.g.d.d.d.s.1.1.1.;.*.| ^ U k 8 7 7 u u 6 3 * # o . ",
"                                                          x.D.F.}.|.oX_.[._._.(.R.E.g.f.u.e.w.>.%.] E c n 8 7 8 u a 7 5 * # o . ",
"                                                            D.H.L.|.+XOXOX=X{.&X[.(.R.g.d.t.1.@.o.~ U k n q 7 p a a 8 4 ; # o o ",
"                                                              D.F.L.|.|..XOXXXXX_.`.g.g.u.w.,.O.] Q m z s 8 8 p a a s 4 ; $ X X ",
"                                                                k.M.V.Q.).).).).).Z.s.u.1.-.O./ Q U x z s s p a a a s 5 = $ % # ",
"                                                                  k.l.l.N.l.~.~.Z.n.8.1.&.o.^ E U x j g d d a a a a 8 4 = * # # ",
"                                                                    3.6.l.l.l.l.8.8.1.#.o.) U U j g a a a a a a a p q 4 3 - $ % ",
"                                                                      h.6.j.l.l.5.6.$.( ) m c k s s 8 p s s 8 8 8 q q 5 = - & & ",
"                                                                              3.2.C C N B l t e 9 q 5 5 q q 9 9 9 5 5 : ; - - & ",
"                                                                                    V V y e r w : : ; ; : : ; ; : : ; ; - < < < ",
"                                                                                    r r w w ; < % % % % & , % , % & , < < 2 2 2 ",
"                                                                                      - - - & % + + + + + o + + + > , , < 2 1 1 ",
"                                                                                      & & & % % + O O O O O O O + + + , < 2 1 1 "
};
