/* XPM */
static char *_0cca19d086f4bcbbd027dd451bfb749oz7H8GfLU7EPa3nY[] = {
/* columns rows colors chars-per-pixel */
"100 100 60 1 ",
"  c black",
". c #1B5E20",
"X c #4F7A36",
"o c #7A6227",
"O c #1F2858",
"+ c #381878",
"@ c #2C397E",
"# c #4E6E60",
"$ c #686868",
"% c #637F67",
"& c #973818",
"* c #E53935",
"= c #B26A00",
"- c #F57C00",
"; c #C15B36",
": c #338535",
"> c #589137",
", c #66A73E",
"< c #65AB3F",
"1 c #68A83F",
"2 c #00CF03",
"3 c #4CAF50",
"4 c #79AE5D",
"5 c #789E62",
"6 c #799668",
"7 c #788D7B",
"8 c #44CF46",
"9 c #5AC54F",
"0 c #FF9800",
"q c #C7B10C",
"w c #FFB300",
"e c #FFEB3B",
"r c #81967E",
"t c #81B067",
"y c #88B76E",
"u c #F1C27D",
"i c #FFF176",
"p c #223A83",
"a c #2B4B9B",
"s c #0040A1",
"d c #3F51B5",
"f c #375DC5",
"g c #0EB3CC",
"h c #00BCD4",
"j c gray51",
"k c #8F9F8C",
"l c #9B9B9B",
"z c #94A292",
"x c #A4ABA5",
"c c #ABB8A5",
"v c #ABB1AB",
"b c gray73",
"n c #CCB0A5",
"m c #B9C0B4",
"M c #BAC4B4",
"N c #BCC8B6",
"B c #CECECE",
"V c #E0E3E0",
"C c #E4E4E4",
"Z c white",
/* pixels */
">>>>>><<<<<<<@O<<><<<<<>X><<<<<<<<<<<<<<<<<2<2<<<<2<2<2<<<<2<222><<<><<<X<><<<<><<<<>2<><2><<>2>2<<<",
"<<XXXX<X<<><@@@@>X><<<<<<<<<<<<<<><><><<><22<2<2>:2<222:><::222::<<<<><<<<><<2<>2<><2@<<2<><<2<<2><<",
"<<<<>X><<<X<====<<><<<<<>X><<<<<<><><><<><222222><:::2:<><<::2><X<<><><<><<<<2<2<<><2@2<2<<<<2<222<<",
"><<<<<<<<<<@@@@@@<>X<<><X<<>>>>><<<<<<<<<::2:22::<X<<<X<<<<<<<<<X<<><<<<><<<22<2<2<:@O222:<>::222::<",
"<<<<>X><<><=-ww-=<<<<<>X<<<>>>>2><2<><<><<><2:2><<<><<<><<><<><<<>><<<<<<<<X222222<@@@@2:<<><::2<<X<",
"><<<<<<<<><=0ee0=<X<><2<<>2<<<<2>2><><<><<><><<><<>><<>><<><<><<>>><<<X<<><::2:22::====<<><<<<<><<X<",
"<<<<>X><<<V=eZie=VVV>2X<<2<X<<2<<2<<<<<<<<<<<<<<<<><<<><<<<<<<<<><<<X<X<<><<><2:2>@@@@@@<><<<X<<<<<<",
"><<<<<<<VV.=eiZe=...V2X2<2<X<<2<222<<<<<<<<<<<<<<<<<<<<<<<<<<<<<<<<<X<<><<<<><<<<>=-ww-=<<<<<X<<>X><",
"><<><<<VV..=0ee0=..V:2<222:<<::222::<X<<X<<X<X<<X<<<X<<<X<<X<<X<<<<<<<<><<X<<<<X<<=0ee0=<<X<<>X><>><",
"<<<><X<V...OOOOOO..VV:::2:<><<::2X<X<X<<X<<X<X<<X<<<X<<<X<<X<<X<<<<<<X<<<<<X<<>X>V=eZie=VVVX><<<<<<<",
"<<<<<>XV..........VV<<><<<<><<<<<X<<><<<X<<><<<<<>X><<<<<><<><<X<<%X<<<<<X<<>X>VV.=eiZe=...V<<<<<>X>",
"X><<<<<<VV........V<<<<<<<<<XXXX<<><<<<<>X><<<<>X><<X><<<<>X><<<>Xr<><<<X<<<<<VV..=0ee0=..V>X><<<<<<",
"<><<><<<<VVVVV..VV<<X<<><<<<<>X><<>X><<<<<   <<<<<<<<<<<<<<<<%<<<<r<<<<<X<<>X>V...OOOOOO..VV<><<><<<",
"<<<<><X<><<<VVVVX<<><<<<<>X><<<<<<<<<<<>< $$$ ><<<<<<<<<<><<<r<><<r<><<<X<<<<<V..........VVX<<<<><X<",
"<<<<<<X<><><<<<<>X><<>X><<<<<<<<<<<<<<<><$jjj$><X<><X<><<><X<r<><X%<<<<<X<<>X><VV........V<X<<<<<<X<",
"<<>X><<<<<<<<>X><<<<<<<<<<<<<<X<><<X<><<<jjjjj<<X<><X<><<<<X<r<<%%%<r%<<X<<>X><>VVVVV..VV<<<<<>X><<<",
"<<>X><<<<<>X><<<<<<<<<<<<<X<><X<><<X<><> lllll <<<<<<<<<X><%<r%>%<r<%<<<<<X<<>X><><VVVVX><<><<>X><<<",
"<><<<<<>X><<<<<<<<<><<X<><X<>X<<><<X<<><<     ><<<<<<<<<X><%<#%>%<#<r<X%%<<<X<<>X><>X<<<<<<><<<<<<><",
"<>X><<<<<<<<<<<<><<><<X<><<<<<<<>X><<<>XX<<><<<<<>X><<<<<<<%%##%<>#<%<r<<%<><<<X<X<<><<<<<<<<<><<<><",
"<<<><<><<<<<<<<<><<<<<<<X<<><<><<<><><<<<<<>X><<<<<<<<<><%rr####<%#%#<%><X<<<<<X<<<<>X><<X<<>X><<<<<",
"<X<<<<>X<<><<<<<>X><<<<<<<<>X<><X<<<><X<<><<<><<><ZZ*<<>%%<<%%#r#%#%##r><<X<X<<<<<><<<><<X<<><<<><<X",
"<X<<<<<<<<>X><<<<<<<<<><<><<<<<<X<<<<<X<<><X<X<<><Z u<>X><<<X%<###r###%<<2XX2<><<<<<>X>><<><<<<<><<X",
"<<<<>X><><<<><<><<<<<<><<><X%><<<<<><<<<<<<X<<<<>**Z <<<<<<<X<<%2###2#<<>2<2<<>X><<<<<<><<><<<X<<<<<",
"<><<>X><><X<<<<><X<><<<<<<<Xr><<><<><<><><<<<<><<***<><<2<<2<<>2###2>#<<2X>2><<<><<><<<<X<<<<<X<<>X>",
"<<><<<<<<<X<<<<<<X<><><%><<<r<<<><<<<<><><<><<><eee**><X2>2X><>2>2>2<<><2<222X><<<<><X<<<<<<<><<<><<",
"<<>X><<><<<<<>X><<<<<>Xr><<>r<<<<<<<<<<<<<<><<<eeed**<<22>2X2<:2<222:<>::222::<<<<<<<X<<X<<>X><<<<<<",
"><<<><<><<><<>X><<<<<<<r<<<>%<X<<>X<X<<><<<<<><333**<><222222<>:::2:><<<::2><<<<<<X><<<<X<<><<<><<X<",
"><X<<<<<<<><<<<<<><<<X<r<<%%%<r%<><<X<<><X<<>><hdd*<@@::2:22::<<><<<><X<<<<><X<><<X><<<2<>2<<<<><<X<",
"<<X<<<<<<<<<<><<<><<>%<r%X%<r<%><<<<<><<<X<<><<dd<<>@@<><2:2><X<<<<<<<X<<<<<<X2><<2<<><2<2<<<X<<<<<<",
"<<<<<>X<X<<>X><<<<<<>%<#%X%<#<r><%%<<><<<<><<<<<X<<@@O<<<>X<<<X<<<<><<2<<2X><2<<<2<<<>2X<2<<9X<<>X><",
"<<><<>X<X<<><<<><<X<<%%##%><#X%<r<<%<<<<<<><<<X<<<@@@@@<<<<><<<<<>X><<2<2>X><2<2    <<2<22299><<<><<",
"<<><<<<<<><<<<<><<X%rr####>%#2#<2<<<<><<X<<<<<X<<>=====<><<><<><<>X<<22<2<2<:2< $$$$ ::222::9><<<<<<",
"X<<><<<<<><<<X<<<<%%2<%%2r#%#2#2r>X><><<<<<<<<<><@@@@@@@><X<<<><<<<<<222222<<::$jjjj$<::2<<>9<<><<X<",
"<<<>X><X<<<<2X<2>X>2><>2>###2##2%<<<<X<<><<<<<>X<==-ww-=<<X<<<<<<><<::2:22::<<<jjjjjj<<<<><<9<<><<X<",
"<><<<><<><<<2<2<<<<2<2>2<%r#2#222<2<<2<<>X><<<<<>==0ee0=><<<X<<>X><<X<<2:2<><< llllll ><<><<9X<<<<<<",
"<><X      X22<2<2<:2>222:2#::222::2<2<><<<><<><<VV=eZie=VVV<X<<><<<<<><<<<<><<X      <<X<<<<9X<<>X><",
"<<< $$$$$$ 2222222<:2:2:2<<X2:2<<2X>2<><X<<<<>VVV.=eiZe=...V<><<<<<<<><<<X<<<<<<>>><<<X<<<<<9><<<><<",
"X<< $$$$$$ :2:22:2X2<<<<2<2<2<<><2<222<<X<<<<VVV..=0ee0=..V<<><<<X<X<<<<<X<<>X><>><<<<X<X<<>9><<<<<<",
"<< $jjjjjj$ <2:222<2<2>:2<222:<>::222::<<<<>XVV...OOOOOO..VV<<<X<<><<<<<>X><<<<X<<X<<><<X<<>9<<><<X<",
"<> jjjjjjjj <<<>222222><:::2:><<<::2<><<><<>XVV..........VVX<<<<<<>X><<<<<<<<<<<<<X<<><<<><<9<<><<X<",
"<> jjjjjjjj ><<::2:22::<><<<<<><<<<<><<<><<<<<VVV........V<X<<<<><<<><<><<<<<<<><<<><<<<<><<<X<<<<<<",
"< $llllllll$ <<<<<2:2<<<><<>><><<><<><<<<<<><<<VVVVVV..VV<<<<2X<2<X<<<<><X<><<<><<<><<<X<<<<<X<<>X><",
"X<          <<<><<><<<X<<<<>><<<<><<<<X<<>X><<<<X<VVVVV<2>X><2X2<<X<<<<<<X<><<<<>X<<<<><<<<<<><<<><<",
"<<          <<<>X<<<<<X<<>X<<<<<<<<<><X<<><X2<>2<<<2>X>2<<<>2<<2<<<<<>X<<><<<<<>X><<<<><X<<>X><<<<<<",
"<><<<><<><<<<<<<<<><<<<<><<<<<<X<<>X><<><<<<2<2X><<2<2<2<<<<2<222<><<<<<<>X><<<<<<<<%><<X<<><<<><<X<",
"<><X<<<<><X<><X<<<><<<X<<<<<<X<X<<><<<<><<<22<2<2<:2<222:<<::222::>X><<><<<><<><<<<<r><<<><<<<<><<X<",
"X<<><<<<<>X><<X<X<<<<<X<<>X<<X<<><<<<X<<<<<222222<<:::2:<<<<::2<><<<99<><X<<<<>%X<><r<<<<><<<X<<<<<<",
"<<<>X><<<<<<<<<<<X<<><<<><<<<<<<><<<X<<<<<::2:22::<<<X<><><<><<<><X<<99<<X<<<<<rX<><r<<X<<<<<X<<>X><",
"<><<<><<><<<<<><<<2<X2<><<<<<>X><<<X<<><<<<><2:2<>X><<<<<><<><<<<<X<<<99<<<<>X>r<<<<%<<<><<<<<><<X<<",
"<><X<<<<>2X<>2<<<<2<2<<>X><<<<<<<<X<<<>X><<><<><<>X><<<<<<X<<<<><<<<<>>9<><<>X>r<<%%%<r%><<<X<<<<<<>",
"X2<>2<<<2>X>2<<<X2<<2><<<><<><<<<<<<><<<><<<<<><<<<<<><<<><<<<<><<><<><<9><<<%<r%<%<r2%<2<<<X<<>X><>",
"<2<2X><<2<2<2<<<X2X222<X<<<<><X<><<<><X<<<<<<<<<<><<<><<><<<<>X><<<<<<<<<<<<2%<#2<%>#2r2  %<<<><<X<<",
"22<2<2<:2<222:<<::222::X<<<<<<X<><><<<X<<<<<X<<>X><<<<<<><<<<<<<<<<<2<<2<<>2>%%2#%<>2<% ss %X<<<<<<>",
"222222<<:::2:<>X>::2><<<<<>X><<<<<>><<<<<>X<X<<><<<><<X<<<<<><<<<<<<2<2X<<>2r2#2##<%2%2q s 9999>X><>",
":2:22::<<<X<><<<<X<<><<><<>X><,<<<<><<><<>X<<%<<<<<><<X<<<<<><X<><>22<2<2<:2<222:r#::22 ssg<X9<>X><>",
"X<2:2<<<<>X><<<<<<<<<<<><<<<<1o&C<><<<><<<<<<r<<<X<<<<<<>><<<<X<><>222222<<:::2:<###::2#ssg 29<<<<<>",
"<<<>X><<<<<<<<<><<X<<<<<<<><<<;n&B><<<<<%><X<r<<<X<<>X><><<<><<<<<::2:22::<<X<<>2%r#2## sgg X9<>X><>",
"<><<<><<><<<<<<><<X<<X<<>X><<<C;&bb<bct>r><<<r<><<<><<><<<<<><<<<<<<<2:22<<2<<<2>##2#%< sggg <<<<<<>",
"<><X<<<<><X<><<<<<<<<X<<><<<><<CB<<faac5r<<><%<><X<<<<><X<><<<><<<<<<<<>2<2<<<<2<2>2<>X ssggg<<>X><>",
"<<<X<<X<<><<<<<>X><<<<><<<<<><<XC<aafapcz<<%%%<r%<><<<<<>X><<<><<><>>><22<2<2<:2X222:><:ssggg <<<<<>",
"><<<<<X<<><<<<@>X><<<<><<<X<<<<<<faaabbbr%<%<r>%<<>X><<<<<<<<<<<<><>>><222222<<:::2:<<X< + ss <>X><>",
"<<><<<<<<>X><<@<<<<<X<<<<<X<<>X>CaCaabp<#%<%>#>r><%%><<><<<<<<<X<<<<<<::2:22::<<<<<>X>X@qq+  <<>X><>",
"<<>X><<><<<><@O<<<<<<<><<><<><<<maaffbx7##%<X#<%Xr<>%<<<<>X><<<X<<<<<<><>2:2<<<<<<<>X>@@    X><<<<<<",
"><<<><<><X<<@@@@X<><><<<<>X<<<<<6Nabavk####<%#%#<%<2X>2<<<<<<<<<<><>>><<><<<<<<<<<<<<<====<<<><<><<<",
"><X<<<<<<X<<====X<><><<<XX<<><<<<yMb%4<%%#2#%#2##r<2<2<<<>X><<X><><>>><<<<<><<<<<<<><@@@@@@X<<<<><X<",
"<<X<<<><X<<@@@@@@>X><<<X<<X<<><<<<8>X2<<%2###2###%2><2<<<>X><<X<<>X><>><<<<><><<<>X><=-ww-=X<<<<<<X<",
"<<<<<>><<<<=-ww-=<<<<<<<<<<X<<><<<2<2X><<2%2#2###<2>222<<>X><<<X<<>X><><>X<<<>><<><<<=0ee0=<<<>X><<<",
"<<><<><<<><=0ee0=<<<<<<<<<<<<<>X>22<2<2<:2#222:<#::222::<><<<<<>X><<>X><>X<<<<>><<<<V=eZie=VVV>X><<<",
"<<><<<<<<>V=eZie=VVV><<<<<<<><<<>222222<<:::2:X<X<::2<<<<>X><<<<<<<<X<<<<<<><<<><<VV.=eiZe=...V<<<><",
"<<<<<><XVV.=eiZe=...V<X<>><<><X<::2:22::X><<<<><X<<><<<><<<><<><<<<<X<<>X><><><<<VV..=0ee0=..V><<<><",
"X<<>X><VV..=0ee0=..V<<>>>>><<<<<<>X2:2<<<<<<<<<<X<<><<<><X<<<<><X<><<<X<<>X><>><>V...OOOOOO..VV<2<<<",
"X<<><<<V...OOOOOO..VV><><<>><<<X<<><<<<<>X><<<<<X<<><<<<<X<<<<<<X<><<<<X<<>X><>>>V..........VV<2><<X",
"<><<<<<V..........VV<<<<<<<><<<X<<><<<<<>X><<<<XX@X<<><<<<<>X><<<<<<<<<<X<<>X><><<VV........V2<2><<X",
"<><<<XX<VV........V<<<<<<<<<<<<X<<><<<<<>X><<><<<@<<<>X><<<<<<<<<<<<<><<<<<><<X<<<<VVVVV..VV<222:<<:",
"<<<<<X<<<VVVVV..VV><X<><<<<<<<>X<<><<<<<>X><<><X@O<><<<><<><<<<<><<<<><<<X<<<<<<><<222VVVV<:::2:<>X>",
"X<<><<<<<X<<VVVV%<<<X<><<<<<XX<<><<<<<>X><<<<<<@@@@><X<<<<><X<><><<><<<<<X<<>X><>>::2:22::<<<X<<<<<<",
"<<<>X><<<<><<<<<rX><<<<<<X<<><<<<<>X><<<<<<<<<<====<<X<<<<<<X<><<<<>>><><><><><><>>>>2:2<<><<<<<>X><",
"X<<><<<<<<>%<><<rX><<<<<X<<<>X><<<<<<<<<<<<><<@@@@@@<<<<>X><<<<<<X<<><<<<%<<<<<<<<<<<<<<<<>X><<<<<<<",
"X<<><<<<X<<r<><Xr<><<<<X<<><<<><<><<<<<X<><><<=-ww-=<><<>X><<<<<<X<<<<<<<r<<<<<<<<<<<<<<><<<><<><<<<",
"X<<><<<<<><r<<<<%<>X><<X<<><X<<<<><X<><X<><<<>=0ee0=<><<<<<<><<<<<<>%<X<XrX<X<X<X<<<<<X<><X<<<<><X<>",
"XX<<><<<<<<r<<%%%<r%<<<<>X><<<<<<<<X<><<<<<<<V=eZie=VVV<><<<><<>X><>r<X<XrX<X<X<X<<<<<<<<<X<<<<<<X<>",
"<<X<<><<<%<r%<%<r<%X><<<<<<<<<<>X><<<<<<<<<VV.=eiZe=...V><<<<<<><<<>r<<<<%<<<<<<<<<<<X<><<<<<>X><<<<",
"<<<<X<<><%<#%<%<#<r<>%%<><<<<<>X><<<<<<><<VV..=0ee0=..V<<<><<X<<<<<>r<<%%%<r%<<<<<<<<<>><<><<>X><<<<",
"<<<><<<>X%%##%<<#<%<r<X%<    <<<<<>X><<><<V...OOOOOO..VV<<><<X<<<X%<r%<%<r<%<X<X<XXXX<<<<<><<<<<<><<",
"<<<><><%rr####<%#%#<%2<< $$$$ X<<><<X<<><<V..........VV<X<<<<<<>X<%<#%X%<#Xr<>%%<><><><<<<<<<><<<><<",
"<<>X><%%<>%%2r#%2%##r2<2$jjjj$<<><<<<<>X>2<VV........V<<X<<>X><><<%%##%<>#>%>r<<%<X<<><<X<<>X><<<<<<",
"<<<<2<<2<>X2<##2r###2<<2jjjjjjX><2X>2<<<2<<<VVVVV..VV<<<<<<>X><<%rr####<%#%#>%><<<<<<>X<X<<><<<><<X<",
"<<<>2>2<<<<2X2r2####2>22jjjjjj<<<2<2<<<<2<2<2<<VVVV222<<<<<<<<<%%>X%%#r#%#%##r<<2><2<<<X<<><<<<<>X><",
"<<<22<2<2<:2<222:%<::222      <<22<2<2<:2>222:<>::222::><<><<<<<<<<<%<#2#r#2#%<<2>2><X<<<<>X><<<<<<<",
"<<>222222><:::2:<<<<::2<      X<222222<<:::2:<<><::2<X<><<><X<>2><2<><2r##2##X<2<X2<<X<<><<<><<><<<<",
"<<::2:22::<<><<<<<<<<<<<><<><<X::2:22::<><<<<<<<<<<<<<<<<<<<X<>2>2X<<<2#2#2<#X<2<222><<<><X<<<<><X<>",
"<<<<X2:2<<<<><X<><><><><><<><<<<<>2:2<<<><X<><<<<<<<<<<<<X><<<22<2X2<:2<222:<<::222::X><<<X<<<<<<X<>",
">X><<<<<<<<<<<X<><><><><<<<<<<<<<<<X<<<<<<X<><<<<<<<<><<<X><<<222222<<:::2:><<<::2><<<>><<<<<>X><<<2",
">X><<<<<<<>X><<<<<<<<<<<<<<<<<><><<<<<>X><<<<<<<><<><><<><<<>::2:22::<><<<<<<><<<<><X<<><<>2<>2><<2<",
"<<<<><<<<<>X><<<<<<<<<<<<<<<<<><><<><<>X><<<<<<<><<><<<<><<<><<>2:2<<<<<<><<<><<><<<X<<<<<>2<2<<<>2<",
"><<<><<><<<<<<><<<<<<<<<<><<><<<<<<><<<<<<><<<X<<X<<<<X<<<<<<<<><<><X<<>X><<<<<<>><<<<<<<<22<2<2<:2<",
"><<<<<<><<><<<><<><><><><><<><<X<<<<<<><<<><<>X<<X<<<<X<<<><<X<<<<<<X<<><<<><<X<<><<><<<X<222222<<::",
"<<><<X<<>X><<<<<<><><><><<X<<<<X<X<<>X><<<<<<><<><<><<<<><><<X<<><<<<><<<<<><<X<<<<<><<<X::2:22::<X<",
"<<><<X<<><<<><<X<<<<<<<<<<X<<<<<<X<<><<<><<X<<><>><>>X><><<<<<<>><<<<><<<X<<<<<<><<<<<<<<><<2:2><<X<",
"X<<<<<<><<<<><<X<<<<<<<<<><<>>X><<><<<<<><<X<<<><XX<<<<<X<<>X><><<<X<<<<<X<<>X><><X<<>X<<><<<X<<<<<<"
};
