/* XPM */
static char *_29315cc2092408cf71903c66a2ea9b3EsTYjgDtY69K8bgT[] = {
/* columns rows colors chars-per-pixel */
"40 40 40 1 ",
"  c None",
". c #2F2F2E",
"X c #414140",
"o c #464645",
"O c #464646",
"+ c #4B4B4A",
"@ c #535352",
"# c #575756",
"$ c #646463",
"% c #646464",
"& c #656564",
"* c #6D6D6C",
"= c gray43",
"- c gray46",
"; c #7B7B7A",
": c #7B7B7B",
"> c #7C7C7B",
", c #828281",
"< c #848483",
"1 c gray53",
"2 c #888888",
"3 c #8B8B8B",
"4 c gray55",
"5 c #8D8D8C",
"6 c #8D8D8D",
"7 c gray57",
"8 c #949493",
"9 c #959594",
"0 c gray60",
"q c #9A9A9A",
"w c #A4A4A3",
"e c #AAAAAA",
"r c #C1C1C1",
"t c #C2C2C1",
"y c gray76",
"u c #C6C6C6",
"i c #C8C8C8",
"p c #CECECE",
"a c LightGray",
"s c gray88",
/* pixels */
"                                        ",
"                                        ",
"                                        ",
"                                        ",
"                                        ",
"                                        ",
"                                        ",
"                                        ",
"                                        ",
"                                        ",
"                                        ",
"                                        ",
"                                        ",
"                                        ",
"                                        ",
"                     <X.oX              ",
"                    <95&>>              ",
"              3o   2:prr48              ",
"             35%   2>pqqr*              ",
"            19qo   *>uaaa-              ",
"             -e,&&&&qrrrw#              ",
"              .9ssssssss>               ",
"              +8srisrire2               ",
"              <1r--e&-<o                ",
"             2&#&#..@*7&                ",
"              =  =     *                ",
"                                        ",
"                                        ",
"                                        ",
"                                        ",
"                                        ",
"                                        ",
"                                        ",
"                                        ",
"                                        ",
"                                        ",
"                                        ",
"                                        ",
"                                        ",
"                                        "
};
