/* XPM */
static char *_b82a53d23cd4ee5c37bf067300ca08advxrioVxDeHSl3iA[] = {
/* columns rows colors chars-per-pixel */
"64 64 239 2 ",
"   c #46010D",
".  c #4A0C17",
"X  c #540D18",
"o  c #6D0B16",
"O  c #690C14",
"+  c #770D17",
"@  c #7D1519",
"#  c #581924",
"$  c #5B1E29",
"%  c #671E28",
"&  c #771C24",
"*  c #5E2E36",
"=  c #75222A",
"-  c #6A2A34",
";  c #682C37",
":  c #772B33",
">  c #722B34",
",  c #6C3B42",
"<  c #693844",
"1  c #783A44",
"2  c #5B5354",
"3  c #74424E",
"4  c #724753",
"5  c #784952",
"6  c #7D5C68",
"7  c #6F6C6B",
"8  c #8D1617",
"9  c #851819",
"0  c #962719",
"q  c #A7331C",
"w  c #AD3218",
"e  c #871B24",
"r  c #931822",
"t  c #A61E29",
"y  c #892728",
"u  c #9A2427",
"i  c #852D34",
"p  c #922D38",
"a  c #83333C",
"s  c #993836",
"d  c #A9272D",
"f  c #A93726",
"g  c #B8392B",
"h  c #AD2B33",
"j  c #B33D37",
"k  c #C12C35",
"l  c #C9373A",
"z  c #B74526",
"x  c #B24B36",
"c  c #CB491C",
"v  c #D64F1E",
"b  c #C74824",
"n  c #CE542D",
"m  c #DB5E38",
"M  c #E55C25",
"N  c #E54C35",
"B  c #E65439",
"V  c #DB6230",
"C  c #ED672C",
"Z  c #E76538",
"A  c #F06A34",
"S  c #ED743A",
"D  c #F2763A",
"F  c #843A44",
"G  c #9E3B45",
"H  c #8C444B",
"J  c #964448",
"K  c #934B53",
"L  c #9C4E53",
"P  c #87535B",
"I  c #95525A",
"U  c #9A5459",
"Y  c #A84648",
"T  c #B34844",
"R  c #AD5547",
"E  c #A55357",
"W  c #B55551",
"Q  c #865A65",
"!  c #9D5C63",
"~  c #985E66",
"^  c #AA5E61",
"/  c #99636C",
"(  c #8B6E76",
")  c #926B73",
"_  c #996C75",
"`  c #967279",
"'  c #9C7278",
"]  c #9C797E",
"[  c #A2646B",
"{  c #A96568",
"}  c #B66367",
"|  c #B6726E",
" . c #A76D74",
".. c #AA7378",
"X. c #B37378",
"o. c #C64B48",
"O. c #D84742",
"+. c #C75544",
"@. c #DB5849",
"#. c #E35443",
"$. c #E65D48",
"%. c #D96747",
"&. c #C56159",
"*. c #D7645B",
"=. c #DC635B",
"-. c #E96846",
";. c #EC774A",
":. c #F17B44",
">. c #EA6F5E",
",. c #E97557",
"<. c #C56867",
"1. c #D56B66",
"2. c #D8746B",
"3. c #CA7C7D",
"4. c #D77B76",
"5. c #E47869",
"6. c #E47570",
"7. c #F18045",
"8. c #F1844D",
"9. c #ED845C",
"0. c #F28855",
"q. c #F5925A",
"w. c #D9836A",
"e. c #EC8667",
"r. c #EE966D",
"t. c #F29768",
"y. c #E98A76",
"u. c #EF9B74",
"i. c #ED987A",
"p. c #F19977",
"a. c #F9A673",
"s. c #887982",
"d. c #9B7B84",
"f. c #A67A85",
"g. c #B27D83",
"h. c #C77E80",
"j. c #968A8A",
"k. c #9C9295",
"l. c #A38489",
"z. c #B6878B",
"x. c #AA8B93",
"c. c #B58B94",
"v. c #B98C92",
"b. c #AC9298",
"n. c #BC9296",
"m. c #BD9499",
"M. c #B5989D",
"N. c #A5A19D",
"B. c #9E97A4",
"V. c #BA9BA5",
"C. c #A7A6A4",
"Z. c #BAA5AA",
"A. c #B3ACB1",
"S. c #BCB6B8",
"D. c #C98587",
"F. c #D98887",
"G. c #D9928D",
"H. c #C18D94",
"J. c #C6989D",
"K. c #D8989A",
"L. c #E68984",
"P. c #E89787",
"I. c #F09D89",
"U. c #E59997",
"Y. c #DFA09F",
"T. c #EEA485",
"R. c #EDA48B",
"E. c #EEAB8D",
"W. c #ECA393",
"Q. c #E9A69A",
"!. c #EDB29C",
"~. c #FABA90",
"^. c #C59DA1",
"/. c #C89AA0",
"(. c #D69FA2",
"). c #C8A4A7",
"_. c #CCA4AB",
"`. c #D5A5A8",
"'. c #D0B2AA",
"]. c #C3AEB3",
"[. c #CCADB1",
"{. c #DAAEB1",
"}. c #CAB5B8",
"|. c #D3B5B7",
" X c #E9AAA4",
".X c #E3ACAD",
"XX c #E9AEAA",
"oX c #EDB5A4",
"OX c #E6B1AC",
"+X c #EAB3AB",
"@X c #F6BFA1",
"#X c #E9B3B2",
"$X c #E9B9B5",
"%X c #E6B9B9",
"&X c #C8C5BB",
"*X c #EFC4B4",
"=X c #EAC1BD",
"-X c #F4C6B0",
";X c #F8D2BA",
":X c #BFBAC2",
">X c #C0BBC3",
",X c #D7BEC1",
"<X c #CBC9C9",
"1X c #DAC3C4",
"2X c #D5C7C8",
"3X c #DCCBCC",
"4X c #DCD9CC",
"5X c #DCCFD1",
"6X c #D9D3D5",
"7X c #EAC4C3",
"8X c #E2CDCC",
"9X c #EBCBC8",
"0X c #E8D3CC",
"qX c #F3D9CA",
"wX c #E0CED1",
"eX c #E4D5D4",
"rX c #E7DAD9",
"tX c #E3DADC",
"yX c #FCE4C8",
"uX c #E7E2D6",
"iX c #EDE4DB",
"pX c #F3E8DB",
"aX c #DDDBE0",
"sX c #EBDEE0",
"dX c #ECE4E5",
"fX c #EAE8E7",
"gX c #EDEBEB",
"hX c #F0E6E7",
"jX c #F4EEE3",
"kX c #F1EAEB",
"lX c #F5F1E1",
"zX c #F8F5E7",
"xX c #FCFAE6",
"cX c #FEFCEC",
"vX c #F4EFF0",
"bX c #F6F3F3",
"nX c #F9F6F6",
"mX c #FDFDF3",
"MX c #FFFFFF",
/* pixels */
"MXMXMXMXMXMXMXMXMXMXMXMXMXMXMXMXMXMXMXMXMXMXMXMXMXMXMXMXMXMXMXMXMXMXMXMXMXMXMXMXMXMXMXMXMXMXMXMXMXMXMXMXMXMXMXMXMXMXMXMXMXMXMXMX",
"MXMXMXMXMXMXMXMXMXMXMXMXMXMXMXMXMXMXMXMXMXMXMXMXMXMXMXMXMXMXMXMXMXMXMXMXMXMXMXMXMXMXMXMXMXMXMXMXMXMXMXMXMXMXMXMXMXMXMXMXMXMXMXMX",
"MXMXMXMXMXMXMXMXMXMXMXMXMXMXMXMXMXMXMXMXMXMXMXMXMXMXMXMXMXMXMXMXMXMXMXMXMXMXMXMXMXMXMXMXMXMXMXMXMXMXMXMXMXMXMXMXMXMXMXMXMXMXMXMX",
"MXMXMXMXMXMXMXMXMXMXMXMXMXMXMXMXMXMXMXMXMXMXMXMXMXMXMXMXMXMXMXMXMXMXMXMXMXMXMXMXMXMXMXMXMXMXMXMXMXMXMXMXMXMXMXMXMXMXMXMXMXMXMXMX",
"MXMXMXMXMXMXMXMXMXMXMXMXMXMXMXMXMXMXMXMXMXMXMXMXMXMXMXMXMXMXMXMXMXMXMXMXMXMXMXMXMXMXMXMXMXMXMXMXMXMXMXMXMXMXMXMXMXMXMXMXMXMXMXMX",
"MXMXMXMXMXMXMXMXMXMXMXMXMXMXMXMXMXMXMXMXMXMXMXMXMXMXMXMXMXMXMXMXMXMXMXMXMXMXMXMXMXMXMXMXMXMXMXMXMXMXMXMXMXMXMXMXMXMXMXMXMXMXMXMX",
"MXMXMXMXMXMXMXMXMXMXMXMXMXMXMXMXMXMXMXMXMXMXMXMXMXMXMXMXMXMXMXMXMXMXMXMXMXMXMXMXMXMXMXMXMXMXMXMXMXMXMXMXMXMXMXMXMXMXMXMXMXMXMXMX",
"MXMXMXMXMXMXMXMXMXMXMXMXMXMXMXMXMXMXMXMXMXMXMXMXMXMXMXMXMXMXMXMXMXMXMXMXMXMXMXMXMXMXMXMXMXMXMXMXMXMXMXMXMXMXMXMXMXMXMXMXMXMXMXMX",
"MXMXMXMXMXMXMXMXMXMXMXMXMXMXMXMXMXMXMXMXMXMXMXMXMXMXMXMXMXMXMXMXMXMXMXMXMXMXMXMXMXMXMXMXMXMXMXMXMXMXMXMXMXMXMXMXMXMXMXMXMXMXMXMX",
"MXMXMXMXMXMXMXMXMXMXMXMXMXMXMXMXMXMXMXMXMXMXMXMXMXMXMXMXMXMXMXMXMXMXMXMXMXMXMXMXMXMXMXMXMXMXMXMXMXMXMXMXMXMXMXMXMXMXMXMXMXMXMXMX",
"MXMXMXMXMXMXMXMXMXMXMXMXMXMXMXMXMXMXMXMXMXMXMXMXMXMXMXbXtX5X5X5X5X5X3X5X5X5X5X5X6XfXvXMXMXMXMXMXMXMXMXMXMXMXMXMXMXMXMXMXMXMXMXMX",
"MXMXMXMXMXMXMXMXMXMXMXMXMXMXMXMXMXMXMXMXMXMXMXMXMXMXMXhX].d.` ` ` ' .. .' ` ` ` f.].dXMXMXMXMXMXMXMXMXMXMXMXMXMXMXMXMXMXMXMXMXMX",
"MXMXMXMXMXMXMXMXMXMXMXMXMXMXMXMXMXMXMXMXMXMXMXnXbXbXnX5Xd.< $ # $ % & & % $ $ $ < l.6XnXnXnXnXnXMXMXMXMXMXMXMXMXMXMXMXMXMXMXMXMX",
"MXMXMXMXMXMXMXMXMXMXMXMXMXMXMXMXMXMXMXMXMXMXfX3X}.}.|.M._ < ; - = & 9 e & = = & : ! J.|.|.|.8XkXMXMXMXMXMXMXMXMXMXMXMXMXMXMXMXMX",
"MXMXMXMXMXMXMXMXMXMXMXMXMXMXMXMXMXMXMXMXMXMX3Xl.P P I I / ) / ! E x g g T L Y j j Y K I I ! z.3XMXMXMXMXMXMXMXMXMXMXMXMXMXMXMXMX",
"MXMXMXMXMXMXMXMXMXMXMXMXMXMXMXMXMXMXMXMXgXdX).P # # o i ~ c.H.h.2.=.#.N *.4.1.1.@.j e + + & ! _.dXbXnXMXMXMXMXMXMXMXMXMXMXMXMXMX",
"MXMXMXMXMXMXMXMXMXMXMXMXMXMXMXMXMXMXMXhX,XM.' P a 0 q x } J.(.K.F.5.-.-.5.F.L.4.=.o.h d r r G | J.1XkXMXMXMXMXMXMXMXMXMXMXMXMXMX",
"MXMXMXMXMXMXMXMXMXMXMXMXMXMXMXMXMXMXMXtXx.4 1 E ^ +.n V w.(.{..XQ.y.:.:.y.U.U.L.6.=.+.l k h d p K v.rXMXMXMXMXMXMXMXMXMXMXMXMXMX",
"MXMXMXMXMXMXMXMXMXMXMXMXMXMXMXMXnXkXrX[./ - F } 4.,.C S u.+X$X$XoXi.8.8.i.+XY.w.1.=.$.$.O.l d r y [ [.rXkXMXMXMXMXMXMXMXMXMXMXMX",
"MXMXMXMXMXMXMXMXMXMXMXMXMXMXMXMXvX,Xv.[ U K { 3.G.e.S :.i.$X7X7X$XT.8.0.T.$XK.} j o.B $.#.O.l h t Y { v.1XbXMXnXMXMXMXMXMXMXMXMX",
"MXMXMXMXMXMXMXMXMXMXMXMXMXnXnXbXdX/.G i Y } D.U.Q.i.8.0.E.=X9X9X=XT.8.8.T.*Xv.J y f V A $.@.N l h t e F _.hXnXnXMXMXMXMXMXMXMXMX",
"MXMXMXMXMXMXMXMXMXMXMXMXbXkXaX,X).f.F G W *.4.U.XXR.r.u.T.!.oX#XoXu.:.;.w.D.g./ I R x n m -.@.l l h r G  ._.wXvXMXMXMXMXMXMXMXMX",
"MXMXMXMXMXMXMXMXMXMXMXMXfX6X:Xs.Q K E W o.$.5.P.OX+XoX!.u.r.u.P.P.e.A M x L [ m.).| s q n Z -.#.O.l h h G I g.wXMXMXMXMXMXMXMXMX",
"MXMXMXMXMXMXMXMXMXMXMXMXaX:Xk.< # 1 } 2.=.$.>.L. X$X*XoXu.7.;.,.2.%.M c q i [ |.uXm.J y z V B m O.l k t r & / ,XMXMXMXMXMXMXMXMX",
"MXMXMXMXMXMXMXMXMXMXMXMX6XA.s.< X 1 ..D.F.y.y.y.r.I.Q.W.9.A V T T x w z W ..J.rXgX,Xz.{ R z f g d t t r + o U ,XMXMXMXMXMXMXMXMX",
"MXMXMXMXMXMXMXMXMXMXMXMX<XB.s.* # 1 f.^.`.XXI.,.:.,.y.y.;.C v f @ 9 @ s g.1XiXvXMXhXrX_.{ y 9 @ 9 + + o o o ! ,XnXMXMXMXMXMXMXMX",
"MXMXMXMXMXMXMXMXMXMXMXMXS.s.6 < - P x._.,X9X!.q.A -.>.>.m v z f a F a I v.1XrXbXMXMXMXeXz.H : F a a F a a F ..5XMXMXMXMXMXMXMXMX",
"MXMXMXMXMXMXMXMXMXMXMXMXb.< 3 H L X./.|.9XpX-XI.,.;.-.B z q x | v.H.n.v.g...^.eXnXMXMXhX1XJ.m.m.n.n.n.n.v.J.|.sXMXMXMXMXMXMXMXMX",
"MXMXMXMXMXMXMXMXMXMXMXMX` . > E <.F. X$XqXpX;XE.5.;.C v q 9 U ).tXsXsX|...F [ ,XMXMXMXnXbXkXkXhXhXhXhXgXhXkXvXMXMXMXMXMXMXMXMXMX",
"MXMXMXMXMXMXMXMXMXMXMXnX_   & T 1.4.y.W.@X;X~.p.,.B c z x U  .n.[.|.[./.g.! z.5XnXMXMXMXMXMXMXMXMXMXMXMXMXMXMXMXMXMXMXMXMXMXMXMX",
"MXMXMXMXMXMXMXMXMXMXMXMX[   8 g #.-.A :.t.a.a.8.Z c q f X.).n. .I K I [ z.[.wXhXMXMXMXMXMXMXMXMXMXMXMXMXMXMXMXMXMXMXMXMXMXMXMXMX",
"MXMXMXMXMXMXMXMXMXMXMXMX .O 8 g N B A D q.q.q.D M g 9 : z.1X).! i & = K ^.hXnXMXMXMXMXMXMXMXMXMXMXMXMXMXMXMXMXMXMXMXMXMXMXMXMXMX",
"MXMXMXMXMXMXMXMXMXMXMXMX[ X & T @.,.e.p.a.~.T.9.%.z @ @ U g.z.........z.=XbXMXMXMXMXMXMXMXMXMXMXMXMXMXMXMXMXMXMXMXMXMXMXMXMXMXMX",
"MXMXMXMXMXMXMXMXMXMXMXnX_   & Y 2.P. X*XyXyX;XI.2.x @ O & a / ).5X8X8XqXjXmXMXMXMXMXMXMXMXMXMXMXMXMXMXMXMXMXMXMXMXMXMXMXMXMXMXMX",
"MXMXMXMXMXMXMXMXMXMXMXMX)   - E D.(.%X0XpXpX;XW.5.T 0 + o o I |.bXmXzXzXcXMXMXMXMXMXMXMXMXMXMXMXMXMXMXMXMXMXMXMXMXMXMXMXMXMXMXMX",
"MXMXMXMXMXMXMXMXMXMXMXMX)   ; ~ n.(.#X9X0XyX-Xi.;.m z w 8 + K '.zXzXlXlXzXmXmXmXMXMXMXMXMXMXMXMXMXMXMXMXMXMXMXMXMXMXMXMXMXMXMXMX",
"MXMXMXMXMXMXMXMXMXMXMXMX(   < ) V.(.{.#X7X9X!.r.D A C c u @ I '.lXjXpXpXlXxXmXMXMXMXMXMXMXMXMXMXMXMXMXMXMXMXMXMXMXMXMXMXMXMXMXMX",
"MXMXMXMXMXMXMXMXMXMXMXMX(   ; ~ v.G.P.P.E.!.E.u.t.0.8.V b G ^ `.eXuXrXiXlXxXcXmXMXMXMXMXMXMXMXMXMXMXMXMXMXMXMXMXMXMXMXMXMXMXMXMX",
"MXMXMXMXMXMXMXMXMXMXMXnX/   < ! 3.w.,.;.8.q.u.E.!.Q.U.y.6.1.h./.}.3XeXpXlXxXmXMXMXMXMXMXMXMXMXMXMXMXMXMXMXMXMXMXMXMXMXMXMXMXMXMX",
"MXMXMXMXMXMXMXMXMXMXMXMXd.X > I <.%.Z C D 7.u.!.=X=X%XXXU.h.h.J.Z.}.eXiXlXxXcXmXMXMXMXMXMXMXMXMXMXMXMXMXMXMXMXMXMXMXMXMXMXMXMXMX",
"MXMXMXMXMXMXMXMXMXMXMXMXb.< 1 G Y T @.-.9.e.R.OX=X=X7X%X XU.(./.V.s.N.uXlXxXcXmXMXMXMXMXMXMXMXMXMXMXMXMXMXMXMXMXMXMXMXMXMXMXMXMX",
"MXMXMXMXMXMXMXMXMXMXMXnX:Xs.Q 1 = x &.4.P.W. XOX$X7X7X7X$X.X`._.Z.Z.7 <XlXxXmXMXMXMXMXMXMXMXMXMXMXMXMXMXMXMXMXMXMXMXMXMXMXMXMXMX",
"MXMXMXMXMXMXMXMXMXMXMXMX<XB.s.1 o F } F.K..X#X#X#X%X7X7X=X#X{.M.M.2X&XrXzXxX4X<XbXMXMXMXMXMXMXMXMXMXMXMXMXMXMXMXMXMXMXMXMXMXMXMX",
"MXMXMXMXMXMXMXMXMXMXMXMX6XA.s.< # F g.J.`.OX#X#X#X$X).j.(.#X%Xj.j.eXpXxXxXxXfXN.C.MXMXMXMXMXMXMXMXMXMXMXMXMXMXMXMXMXMXMXMXMXMXMX",
"MXMXMXMXMXMXMXMXMXMXMXMXaX:Xk.1 $ 1 f.V.`.{.#X#X#X#Xn.l._.#X%X1X4XiXlXxX&X4XmXbX6XMXMXMXMXMXMXMXMXMXMXMXMXMXMXMXMXMXMXMXMXMXMXMX",
"MXMXMXMXMXMXMXMXMXMXMXMXgX6XS.d.Q Q ) f.v.`.{..XXX#X#X(.J.^.|.8XiXpXzXzXN.&XmXMXMXMXMXMXMXMXMXMXMXMXMXMXMXMXMXMXMXMXMXMXMXMXMXMX",
"MXMXMXMXMXMXMXMXMXMXMXMXbXgXaX2XA.f.5 5 ' V.`.{.#X#X#X.X_.M.j.,XiXpXlXxXzXmXmXMXMXMXMXMXMXMXMXMXMXMXMXMXMXMXMXMXMXMXMXMXMXMXMXMX",
"MXMXMXMXMXMXMXMXMXMXMXMXMXMXMXMXfXV.5 < Q f.m./.(.`..X{._.Z.].2XuXiXA.&XgXMXmXbXMXMXMXMXMXMXMXMXMXMXMXMXMXMXMXMXMXMXMXMXMXMXMXMX",
"MXMXMXMXMXMXMXMXMXMXMXMXMXMXMXMXvX2Xx.` ) Q Q ~ / g.J.`.].V.>XZ.C.uXuXA.k.S.<XC.fXMXMXMXMXMXMXMXMXMXMXMXMXMXMXMXMXMXMXMXMXMXMXMX",
"MXMXMXMXMXMXMXMXMXMXMXMXMXMXMXMXMXgXtX].) * # $ - Q c.V.V.Z.V.7 7 4XxXcXfX<XS.<XnXMXMXMXMXMXMXMXMXMXMXMXMXMXMXMXMXMXMXMXMXMXMXMX",
"MXMXMXMXMXMXMXMXMXMXMXMXMXMXMXMXMXMXMXeXx.5 < < 1 P ` d.d.f.j.2 s.&XlXmXmXMXMXMXMXMXMXMXMXMXMXMXMXMXMXMXMXMXMXMXMXMXMXMXMXMXMXMX",
"MXMXMXMXMXMXMXMXMXMXMXMXMXMXMXMXMXMXMXgX2XZ.M.M.x.s.6 1 , 3 4 2 ( ).uXmXMXMXMXMXMXMXMXMXMXMXMXMXMXMXMXMXMXMXMXMXMXMXMXMXMXMXMXMX",
"MXMXMXMXMXMXMXMXMXMXMXMXMXMXMXMXMXMXMXMXbXkXkXkX6Xx.< . . . . . * ] 4XmXMXMXMXMXMXMXMXMXMXMXMXMXMXMXMXMXMXMXMXMXMXMXMXMXMXMXMXMX",
"MXMXMXMXMXMXMXMXMXMXMXMXMXMXMXMXMXMXMXMXMXMXMXMXvXZ.Q , , , 3 , 5 b.rXMXMXMXMXMXMXMXMXMXMXMXMXMXMXMXMXMXMXMXMXMXMXMXMXMXMXMXMXMX",
"MXMXMXMXMXMXMXMXMXMXMXMXMXMXMXMXMXMXMXMXMXMXMXMXMXnXvXkXkXkXkXkXbXbXMXMXMXMXMXMXMXMXMXMXMXMXMXMXMXMXMXMXMXMXMXMXMXMXMXMXMXMXMXMX",
"MXMXMXMXMXMXMXMXMXMXMXMXMXMXMXMXMXMXMXMXMXMXMXMXMXMXMXMXMXMXMXMXMXMXMXMXMXMXMXMXMXMXMXMXMXMXMXMXMXMXMXMXMXMXMXMXMXMXMXMXMXMXMXMX",
"MXMXMXMXMXMXMXMXMXMXMXMXMXMXMXMXMXMXMXMXMXMXMXMXMXMXMXMXMXMXMXMXMXMXMXMXMXMXMXMXMXMXMXMXMXMXMXMXMXMXMXMXMXMXMXMXMXMXMXMXMXMXMXMX",
"MXMXMXMXMXMXMXMXMXMXMXMXMXMXMXMXMXMXMXMXMXMXMXMXMXMXMXMXMXMXMXMXMXMXMXMXMXMXMXMXMXMXMXMXMXMXMXMXMXMXMXMXMXMXMXMXMXMXMXMXMXMXMXMX",
"MXMXMXMXMXMXMXMXMXMXMXMXMXMXMXMXMXMXMXMXMXMXMXMXMXMXMXMXMXMXMXMXMXMXMXMXMXMXMXMXMXMXMXMXMXMXMXMXMXMXMXMXMXMXMXMXMXMXMXMXMXMXMXMX",
"MXMXMXMXMXMXMXMXMXMXMXMXMXMXMXMXMXMXMXMXMXMXMXMXMXMXMXMXMXMXMXMXMXMXMXMXMXMXMXMXMXMXMXMXMXMXMXMXMXMXMXMXMXMXMXMXMXMXMXMXMXMXMXMX",
"MXMXMXMXMXMXMXMXMXMXMXMXMXMXMXMXMXMXMXMXMXMXMXMXMXMXMXMXMXMXMXMXMXMXMXMXMXMXMXMXMXMXMXMXMXMXMXMXMXMXMXMXMXMXMXMXMXMXMXMXMXMXMXMX",
"MXMXMXMXMXMXMXMXMXMXMXMXMXMXMXMXMXMXMXMXMXMXMXMXMXMXMXMXMXMXMXMXMXMXMXMXMXMXMXMXMXMXMXMXMXMXMXMXMXMXMXMXMXMXMXMXMXMXMXMXMXMXMXMX",
"MXMXMXMXMXMXMXMXMXMXMXMXMXMXMXMXMXMXMXMXMXMXMXMXMXMXMXMXMXMXMXMXMXMXMXMXMXMXMXMXMXMXMXMXMXMXMXMXMXMXMXMXMXMXMXMXMXMXMXMXMXMXMXMX",
"MXMXMXMXMXMXMXMXMXMXMXMXMXMXMXMXMXMXMXMXMXMXMXMXMXMXMXMXMXMXMXMXMXMXMXMXMXMXMXMXMXMXMXMXMXMXMXMXMXMXMXMXMXMXMXMXMXMXMXMXMXMXMXMX"
};
