/* XPM */
static char *_f70f1612598486cdccea48cffdb44ab2utBVij1oWYFcmJ1[] = {
/* columns rows colors chars-per-pixel */
"64 64 89 1 ",
"  c None",
". c #0B0A0A",
"X c #130E0E",
"o c #14100F",
"O c #0F0F10",
"+ c #131212",
"@ c #1B1615",
"# c #1D1917",
"$ c #1C1A19",
"% c #211613",
"& c #231916",
"* c #2A1B16",
"= c #241C19",
"- c #2C1D19",
"; c #341F14",
": c #311E19",
"> c #27211C",
", c #2A211D",
"< c #362015",
"1 c #392115",
"2 c #34231C",
"3 c #3B261C",
"4 c #3D291F",
"5 c #262524",
"6 c #2D2620",
"7 c #332121",
"8 c #3C2523",
"9 c #372A21",
"0 c #3D2B21",
"q c #3F3127",
"w c #402626",
"e c #432D22",
"r c #482E27",
"t c #453125",
"y c #4B3326",
"u c #45332C",
"i c #4C362A",
"p c #4D382B",
"a c #513627",
"s c #5B3526",
"d c #5F3827",
"f c #503728",
"g c #543B2A",
"h c #583E2C",
"j c #633726",
"k c #633827",
"l c #693A27",
"z c #643928",
"x c #6C3C29",
"c c #733E2A",
"v c #59402F",
"b c #5D4331",
"n c #77402A",
"m c #79432C",
"M c #614532",
"N c #6C4533",
"B c #654A35",
"V c #684C37",
"C c #664C39",
"Z c #6A4E39",
"A c #714532",
"S c #7B4630",
"D c #734A36",
"F c #7D4A33",
"G c #744F3C",
"H c #6D513B",
"J c #73553E",
"K c #7B523E",
"L c #76583F",
"P c #7C5642",
"I c #775940",
"U c #7B5C43",
"Y c #7F6045",
"T c #824D34",
"R c #84533B",
"E c #8A563C",
"W c #815540",
"Q c #855942",
"! c #895C44",
"~ c #816246",
"^ c #846449",
"/ c #89644C",
"( c #89694C",
") c #90684E",
"_ c #8E6950",
"` c #976C50",
"' c #9D6F52",
"] c #937051",
"[ c #9C7154",
/* pixels */
" +X+....++.X.+oO....++.X.+oO....++.X.+oO....++.X.+oO....++.X.++$",
" ..............................................................$",
" ..............................................................@",
" ..............................................................@",
" ..............................................................+",
" ..............................................................+",
" ..............................................................$",
" ..............................................................$",
" ..............................................................@",
" ..............................................................+",
" OO..OOO.....O.O.OOO.OOO.O+OO.X.....OOOO.O.XOOOO.OOO.OOX....OO+$",
" ..............................................................$",
" +oOOO.OO.O.O.X.ooooXXoX+XooXXXXOXXXXo..OXXXXXXXXXOXX.O.X..OO.O$",
" --@%&@%%%@%@@%=------=*&**=----=----=%@@&-:--&-:%---@@@@@@@@@&9",
" ::::::-:::::-:::::3rr9@@&&%#@*<*%-&&%%*-*:7:7::7-&%&&%&-&%&=-7q",
" bhhhhIIIIIIHbhbhhhpreighbhhvvvvhZIIJIIIIIIhhhhhhhhhhhh7:ghZIIhC",
" hgggghhhggghggagae34etgggggggaggsvgvvdghhhgsahagaafgageeaggvggM",
" eeeeeeeew13eeeeeee4reeeeeeeeeeeeeeeeeeeeeeeeeeer222eeee2eeeeeeg",
" oXXXXXo@oXXXXXXXXXXXXXXoXXXXXXXXXXXXXXXXXoXXXXXXXoXooXXooooooo=",
" .+X.Xo@++.O.o...+X+oooXo.XXXXXoOoOOooXXXX+.+oXXo....o.Xo@@@.O+$",
" .@+X&:-=&.@@+.o@@@@@@@@@@@@@@@@@@@@@@@@@@@@@@@@@@o.++.#--=*.+$5",
" +@@X-:3e*o@$+@%%%%%%%%%%%%%%%%%%%%%%%%%%%%%%%%%%%$+@$X-:3e:+@@5",
" $;;@:3ry2@;*@@#%%@%@%%%@%%@%%%%%@%%@@%@%@%%@@%@%%@+=;@-:ry0$*<5",
" $;;@eryye#;-@+@@o@@@@o@@@@@@@@@@@@@@@@@@@@@@@@@@++$;;%8rayt@<<5",
" @<;#yyyye@12@+@@@##-----:------<**------------&@@+@;;$eyyyr&<35",
" $;;>zzaas&19+$=*<-&::::::::::::;,;,2-:;::::::::=-$@;;&jlsyk$<45",
" @<;-mnxaj#12@#::;**2430430444403344440444441:;:-:-#;;&xccsl&;35",
" @;;,Rnccj&32@@%%%@@%*******&**&******&*&***&%%%&%@@;;=Gmccc=145",
" $<;,[RTTD#13@@@%%@@%&%&@&%#&@%&%@&@%@@@@@%@&&%%%&#$;;=)ERTK=<35",
" @<;>JKDNh&32+@-::::::::-::-::-;:::::&&**=::--:::--$;;=VGDNM=<45",
" @<;=ccccs%12+$:::::::::12:2:::21:2::*-;1::::::::::@;;%lcccl&<35",
" $1<=ccncj#13@$---*:-:3084431=3888443*24w33:--:*-*-@;;&xccnx=135",
" #3;=nnnns&32$@%%%%%@@%%%@%%%%%%@%@@%@@@%%%#@%%@%%@@3<#lnnnk=<45",
" &3<>Fnnxt#12+@@@&=&**&@@@@@@@#&*>**&*&&&&*&&&@@@@@@3<&Amnca#<45",
" #3<,Qnnka#12@@,-:;:-<<23;%&--2eyyye3133334441-;--$@3<&Kmnks&<35",
" #3<,Qmncs#22@@-:14typgvg42typgvvvvgvvvvhgiaatttr3:$31&LSnnk#135",
" $3<,QnnnN#1<@@*=*33effit,-etfypfiiiaiiiie44444122*@3<&LmnmF=<<5",
" #3<,EnnmK@<-+@@%@%=*>&*&&#&*&=*&&****&*&&**=*&@%@@@3<&KSnmW><<5",
" #3<5QnnmJ@1;@=2e0=-t0ttiiyuttettqqeeeqettettetqt2&@31#JmnnW=;<5",
" #3<,RnnmK@1-=yaaayeBMBVLLLJBVBVVVVVVVVVVVBvggafay2#11>KmnnP>;<5",
" #3<*mnnSG@1;=gbbBb4b~^Y((^((((((((((((((((^^^Vbbb2$3<&xnnmP=<<5",
" #3<=xnnSJ%;;$3000,&4yytytyyuyyttytyyyyyuyuyyye000#@31#dnnmW=<;5",
" #4<&innSG&11@$@&>=*->-=>*=*>**>>*>*=&@&&&=-==*>=&@@3<#tnnmW=<35",
" #1<&knnSJ#12$278yiyyyyyfpgvyiiyyyvbv22044yfffffp02$<<&annmP=<35",
" @<;>FnnT/#12>gbMbvbbbMMMBMvvggaaagBJyegvMHJJJJHHHb><;%mmnm)><45",
" #1<,QnnmP#1;*ihgggbVJ^~YLIYULbttyBUYpbIY^~^~bggghp>2<&Lmmm!=<<5",
" #3<,!nnSJ@1-@,:--,;-222222212<>,-<,2$=222,22,,--2-#3<=RmmmP=;<5",
" #3<>FnnmK@1*@#222,222>=&@>22,22222229quq92222222,#@41#DmnmP=<<5",
" #4<=nnnmJ@1;=taaaafffayv03fagvvvvBHHVbBJHHHHBgpfvf#3<#lnnmP=<<5",
" #3<=dnnSG&1-=agbVJJJZJLYveZLLYYUIIIYIIYY~YYYIJBbZH,21#annmR=<<5",
" #3<&annSG#12#eiZZHHMbHHHy0HHHHZbvhhhphbHHHHHHHVHBB>11@tnnnR=<35",
" @<<=xnnFP#14@****&>>*>&>#@>&>*>==-==******=&****>&#<1&knnm^><45",
" @<*>TnnT(&12&q4q000044q40ttqq00040002,2#>44000e000#<<&GnnS[><35",
" $<<,!FFE(#32>ggbbbMBBBBMHJLZBBBBVvggpag0pBBvggMMvi>;<&KTSF[><45",
" $<;>PQQ!U#12,VJLLLLY((((((((((YJILJHY^]hH((IHHILHv#;;#HQQQ^><35",
" @<<=p00qy#32#4iipuptiiipfptfptq00040qpp,9iiq000002#;;#iu0ep$<35",
" #1;*#==&$*13$                                     $;;*$=&=@*135",
" %1;;&ww7#1145                                     $;;;&8w8#;135",
" #3;:@ww8#1105                                     $11;@8w8$;145",
" #4;=38882*195                                     $31&98803*145",
" $3<$rpii0@125                                     $31@eiiie#;15",
" &e<=7777,*135                                     $01&77777&135",
" $e33262728405                                     #943777223445",
" @@$$$$$$$$$$5                                     $$$$$$$$$$$$5"
};
