/* XPM */
static char *b6c4d979f0d541ece904b98990f89425u2nquRVagiSTr1cu[] = {
/* columns rows colors chars-per-pixel */
"40 40 11 1 ",
"  c None",
". c #2F2F2E",
"X c gray43",
"o c #767675",
"O c #838382",
"+ c gray55",
"@ c gray57",
"# c gray71",
"$ c gray79",
"% c gray80",
"& c gray88",
/* pixels */
"                                        ",
"                                        ",
"                                        ",
"                                        ",
"                                        ",
"                                        ",
"                                        ",
"                                        ",
"                                        ",
"                                        ",
"                                        ",
"                                        ",
"                                        ",
"              .X   X.                   ",
"              .#OOO$.                   ",
"              .#+%%+.                   ",
"              .#O$$O.                   ",
"              .#%%%%.                   ",
"              X#$$$oX                   ",
"             .##&&&.                    ",
"             .#$&&&.                    ",
"             X#&+&+O                    ",
"          XX.##&.&.&.                   ",
"         .oo.oo+.+.+.                   ",
"         @@@@@@@@@@@@                   ",
"                                        ",
"                                        ",
"                                        ",
"                                        ",
"                                        ",
"                                        ",
"                                        ",
"                                        ",
"                                        ",
"                                        ",
"                                        ",
"                                        ",
"                                        ",
"                                        ",
"                                        "
};
